# Blender 5.2.0 LTS
# www.blender.org
mtllib HAKUSAI.mtl
o tripo_node_084f1e31
v 0.000235 -0.129107 -0.053369
v 0.004435 -0.115319 -0.133059
v 0.009736 -0.173081 0.228253
v 0.011344 -0.083464 -0.259585
v 0.015842 -0.115314 -0.061654
v 0.016693 -0.114883 -0.061138
v 0.017546 -0.114396 -0.061883
v 0.018932 -0.219657 -0.082553
v 0.026173 -0.102024 -0.148677
v 0.026437 -0.132396 -0.327953
v 0.038849 -0.087946 0.243166
v 0.041246 -0.150709 0.276546
v 0.043087 -0.091616 -0.168831
v 0.043938 -0.091264 -0.168409
v 0.044727 -0.090610 -0.168954
v 0.051967 -0.094122 -0.012006
v 0.060215 -0.072165 0.248002
v 0.060966 -0.071628 0.248646
v 0.061817 -0.071030 0.248028
v 0.063321 -0.066815 0.364890
v 0.067837 -0.068825 0.194598
v 0.070260 -0.125586 0.383649
v 0.074961 -0.134476 0.173813
v 0.079212 -0.093700 -0.052598
v 0.079697 -0.155955 -0.232698
v 0.079697 -0.155478 -0.233454
v 0.080017 -0.154824 -0.233999
v 0.080384 -0.020148 -0.274433
v 0.097201 -0.205066 -0.094008
v 0.103659 -0.047153 -0.348140
v 0.107788 -0.050333 0.340636
v 0.108643 -0.050192 0.340519
v 0.108643 -0.050114 0.341567
v 0.109419 -0.048844 0.358144
v 0.122765 -0.045121 -0.096354
v 0.131626 -0.055430 0.255153
v 0.139269 0.086421 -0.281896
v 0.141483 -0.093328 0.373132
v 0.147105 -0.093708 -0.259875
v 0.151106 -0.101130 0.189426
v 0.151915 -0.147912 -0.101461
v 0.157693 0.005832 -0.114222
v 0.170799 0.052842 -0.149696
v 0.185194 -0.020238 0.351783
v 0.186097 0.134549 -0.350395
v 0.188226 0.195528 -0.289793
v 0.192998 -0.018316 0.145156
v 0.199388 -0.001101 0.069368
v 0.202058 -0.089479 -0.090743
v 0.204915 0.032856 -0.282378
v 0.207450 0.037695 0.009640
v 0.220036 0.126882 -0.136294
v 0.222418 -0.077840 0.156224
v 0.229956 0.309895 -0.302168
v 0.232127 -0.055748 0.191236
v 0.233101 -0.006321 -0.075248
v 0.233820 -0.039353 -0.136099
v 0.233830 0.306027 -0.339906
v 0.235711 0.017083 -0.164309
v 0.238782 -0.068585 0.069583
v 0.240478 -0.008193 0.312586
v 0.249224 0.051478 -0.192550
v 0.249584 -0.058876 0.345026
v 0.251505 -0.002696 -0.131192
v 0.252970 0.136089 -0.264180
v 0.254338 -0.029694 0.015000
v 0.259363 0.235142 -0.304215
v 0.263650 0.121425 -0.011332
v 0.276794 0.264899 -0.269405
v 0.278346 0.055250 0.225998
v 0.279536 -0.025930 0.096727
v 0.279691 0.027188 0.306604
v 0.283104 0.050434 -0.059382
v 0.286587 0.010303 -0.001517
v 0.287041 0.126399 -0.179471
v 0.287798 0.022258 -0.038944
v 0.288724 0.262977 -0.146530
v 0.289555 0.176917 -0.228806
v 0.289657 -0.045777 0.097258
v 0.291133 0.011192 0.159711
v 0.293093 0.241125 -0.111920
v 0.294864 0.304477 -0.274851
v 0.298232 0.008052 0.306130
v 0.300624 0.198199 -0.053721
v 0.301514 0.210896 -0.214171
v 0.301910 0.209053 -0.213713
v 0.301910 0.210240 -0.213624
v 0.311392 0.096357 -0.084492
v 0.317631 -0.021075 0.222271
v 0.319879 0.136874 -0.131883
v 0.320837 0.122078 0.130640
v 0.321835 0.055437 0.044105
v 0.323178 0.288854 -0.202241
v 0.328177 0.263101 -0.122469
v 0.329447 0.080424 0.245436
v 0.330207 -0.003834 0.315622
v 0.330304 0.027922 0.030867
v 0.335291 0.057120 0.260934
v 0.337733 0.166328 0.105897
v 0.353665 0.004162 0.213399
v 0.358744 0.134239 0.062331
v 0.367730 0.084121 0.287205
v 0.368326 0.035261 0.201409
v 0.369478 0.233884 0.083008
v 0.369850 0.260087 0.019280
v 0.372537 0.240688 -0.062188
v 0.373462 0.253060 -0.021665
v 0.374075 0.063657 0.152521
v 0.374275 0.124921 0.088362
v 0.377478 0.177738 -0.035694
v 0.378352 0.251934 -0.018151
v 0.379976 0.093379 0.108250
v 0.380108 0.046258 0.293007
v 0.380229 0.130040 0.273526
v 0.380364 0.235331 -0.091184
v 0.382652 0.175020 -0.002672
v 0.386892 0.132764 0.066323
v 0.387759 0.245357 -0.002625
v 0.390377 0.285822 0.031312
v 0.392391 0.147185 0.019495
v 0.402840 0.098070 0.088522
v 0.418510 0.208222 0.031152
v 0.419092 0.113753 0.208176
v 0.421887 0.307914 0.088538
v 0.430943 0.195296 0.122240
v 0.433839 0.213319 0.071534
v 0.444745 0.152188 0.171625
v 0.450592 0.158484 0.265815
v 0.459869 0.249521 0.236198
v 0.480450 0.274698 0.140742
v 0.489095 0.227300 0.241239
v -0.000713 -0.153556 0.388104
v -0.002753 -0.120182 0.399602
v -0.008363 -0.091534 0.316327
v -0.012161 -0.179455 0.306003
v -0.014069 -0.124910 0.251587
v -0.026726 -0.104332 -0.221803
v -0.027576 -0.104577 -0.221598
v -0.028429 -0.104734 -0.221786
v -0.045274 -0.118780 0.108385
v -0.047223 -0.139414 0.404824
v -0.052366 -0.113343 0.409428
v -0.055001 -0.191015 -0.252247
v -0.056678 -0.175747 0.225280
v -0.059094 -0.110090 -0.230420
v -0.061259 -0.220883 -0.066311
v -0.061684 -0.181936 0.398895
v -0.064631 -0.188179 0.121003
v -0.068548 -0.165081 -0.295579
v -0.069093 -0.111229 0.317165
v -0.072701 -0.210990 0.015681
v -0.072701 -0.210858 0.016673
v -0.073547 -0.210787 0.016614
v -0.079834 -0.127934 -0.036912
v -0.085542 -0.201048 0.070061
v -0.097273 -0.220387 0.149662
v -0.101175 -0.167156 0.237755
v -0.108949 -0.195254 0.249954
v -0.112501 -0.186908 0.116893
v -0.118350 -0.118689 -0.205531
v -0.118728 -0.188648 0.037011
v -0.121025 -0.124582 0.300584
v -0.123779 -0.121436 -0.024632
v -0.124634 -0.121195 -0.024832
v -0.125488 -0.120951 -0.024539
v -0.131884 -0.181269 0.337397
v -0.141663 -0.132235 0.412248
v -0.142517 -0.132399 0.412385
v -0.143356 -0.132536 0.412221
v -0.144761 -0.166404 0.275875
v -0.146184 -0.116314 0.059438
v -0.146644 -0.118245 0.172594
v -0.147118 -0.158494 0.431879
v -0.149231 -0.114433 -0.078479
v -0.157214 -0.193542 -0.032755
v -0.163194 -0.176139 -0.255393
v -0.164476 -0.189776 0.441687
v -0.169394 -0.193159 0.359349
v -0.173581 -0.139627 0.426073
v -0.179662 -0.185504 0.040278
v -0.185674 -0.213214 0.337887
v -0.187637 -0.182419 -0.165553
v -0.188492 -0.182275 -0.164559
v -0.189331 -0.182070 -0.164313
v -0.194817 -0.179249 -0.076884
v -0.202374 -0.100582 -0.159151
v -0.209426 -0.109595 0.045833
v -0.218574 -0.176835 0.389140
v -0.220480 -0.203387 0.352003
v -0.224517 -0.150347 0.442776
v -0.233293 -0.199324 0.246601
v -0.241085 -0.193441 0.146012
v -0.242771 -0.116240 0.184272
v -0.247343 -0.206431 0.111250
v -0.263909 -0.200548 0.451604
v -0.268058 -0.137017 0.394863
v -0.268891 -0.148933 -0.150053
v -0.269233 -0.125824 -0.221261
v -0.270818 -0.170339 0.086050
v -0.275995 -0.151950 -0.067154
v -0.295718 -0.173356 -0.052358
v -0.298922 -0.180526 0.258256
v -0.300124 -0.060428 -0.158030
v -0.300135 -0.165593 0.403268
v -0.305969 -0.179081 0.346013
v -0.306824 -0.178729 0.345719
v -0.306824 -0.178416 0.346571
v -0.308625 -0.154674 0.227988
v -0.311397 -0.187976 0.302859
v -0.314804 -0.194058 0.446227
v -0.316529 -0.165039 0.047974
v -0.324192 -0.106726 0.220247
v -0.327441 -0.162996 0.365734
v -0.337246 -0.084124 -0.210706
v -0.337717 -0.110573 0.026276
v -0.355954 -0.079733 0.052573
v -0.359992 -0.103165 0.192700
v -0.360227 -0.148649 0.192537
v -0.364908 -0.158921 0.355870
v -0.376396 -0.147781 0.115213
v -0.389579 -0.110641 0.333335
v -0.392856 -0.119124 0.183616
v -0.400615 -0.139201 0.051099
v -0.401390 -0.136219 0.371918
v -0.406843 -0.047774 0.018695
v -0.409119 -0.123564 0.273809
v -0.413481 -0.104048 -0.025473
v -0.415770 -0.117371 0.069447
v -0.416510 0.024354 -0.191548
v -0.417334 -0.175689 0.201268
v -0.430790 -0.121396 0.318667
v -0.442843 -0.054317 -0.091564
v -0.443397 0.008857 -0.196663
v -0.444347 -0.035462 -0.023448
v -0.445441 -0.079477 0.032749
v -0.456900 0.003414 -0.083590
v -0.489044 -0.008929 -0.105493
v -0.494105 -0.037278 -0.053741
vn -0.0881 -0.2715 -0.9584
vn -0.3237 -0.1645 -0.9318
vn -0.5664 0.7978 -0.2065
vn -0.3141 0.9386 0.1428
vn -0.3961 0.9064 0.1468
vn 0.0477 -0.9355 -0.3500
vn -0.3148 0.9241 -0.2169
vn -0.1395 0.9390 -0.3143
vn 0.4597 -0.8861 -0.0594
vn -0.4371 -0.3289 -0.8371
vn -0.7949 0.5979 -0.1032
vn -0.0734 -0.0553 -0.9958
vn 0.6429 -0.6433 -0.4157
vn 0.2445 0.9442 -0.2208
vn -0.3074 0.9509 0.0373
vn 0.0737 0.9973 -0.0014
vn 0.7868 -0.3547 -0.5051
vn -0.1081 -0.9941 -0.0011
vn -0.2385 -0.9711 -0.0062
vn 0.8325 -0.5026 -0.2330
vn -0.5819 -0.7174 -0.3830
vn 0.7112 -0.6909 -0.1300
vn 0.4789 -0.7870 -0.3890
vn 0.8001 -0.3408 -0.4936
vn -0.8936 0.4488 0.0010
vn -0.4306 -0.8805 -0.1983
vn -0.2795 -0.0982 -0.9551
vn 0.1290 -0.9917 -0.0008
vn 0.4442 0.8529 -0.2742
vn 0.1731 -0.9848 0.0130
vn -0.2882 -0.9551 -0.0694
vn 0.0497 -0.9974 -0.0523
vn -0.3491 -0.9268 -0.1386
vn -0.1191 0.0749 -0.9901
vn -0.4375 0.8983 0.0406
vn -0.4082 0.8911 0.1981
vn -0.4916 0.8486 0.1954
vn -0.9464 0.0301 0.3215
vn -0.2067 -0.9782 -0.0217
vn 0.8023 -0.2544 -0.5399
vn 0.8304 -0.1295 -0.5419
vn -0.1377 -0.2096 -0.9680
vn 0.5197 -0.8469 0.1124
vn -0.2145 0.9623 0.1672
vn -0.2232 0.9539 0.2009
vn -0.2527 0.9395 0.2313
vn -0.5560 -0.7508 -0.3567
vn -0.6609 -0.7179 -0.2186
vn -0.9521 0.2257 -0.2061
vn -0.1897 -0.9779 0.0885
vn -0.3635 -0.9095 0.2015
vn 0.7347 -0.6620 -0.1482
vn 0.8838 -0.3160 -0.3451
vn 0.9496 -0.0584 -0.3079
vn 0.8311 -0.4665 -0.3028
vn 0.6778 -0.7352 0.0037
vn -0.6935 0.6935 0.1951
vn -0.7968 0.5445 0.2619
vn -0.6696 0.2456 -0.7010
vn 0.1363 0.8953 -0.4242
vn -0.1007 0.9445 0.3127
vn -0.5727 0.6450 0.5059
vn -0.5402 0.7293 0.4199
vn -0.8126 0.4609 0.3566
vn -0.8179 0.4816 0.3147
vn -0.4177 -0.9005 -0.1210
vn -0.3566 -0.9078 -0.2206
vn 0.8868 -0.2448 -0.3921
vn 0.4784 0.8445 0.2409
vn 0.2465 -0.9581 0.1458
vn 0.1525 -0.9552 0.2535
vn 0.2195 -0.9578 0.1858
vn -0.9269 0.3667 0.0800
vn -0.0886 0.5942 -0.7994
vn -0.5610 0.8224 0.0946
vn 0.1743 0.9845 0.0212
vn -0.3494 0.9350 -0.0616
vn 0.0848 0.9449 0.3161
vn -0.5357 -0.8402 -0.0837
vn -0.3615 0.9298 -0.0690
vn 0.2376 0.9709 0.0294
vn 0.2636 0.9646 0.0058
vn -0.9481 -0.0895 0.3050
vn -0.6232 0.4207 0.6593
vn -0.0721 -0.9924 -0.0994
vn -0.4494 -0.8893 0.0850
vn -0.5039 0.8622 0.0524
vn -0.4486 0.8935 -0.0188
vn 0.7887 0.5437 -0.2869
vn 0.2194 -0.9705 0.1004
vn -0.7206 0.6712 0.1737
vn -0.8009 0.5533 0.2288
vn -0.9058 0.0860 0.4148
vn -0.9222 -0.0274 0.3859
vn 0.0253 0.8466 0.5316
vn 0.8270 -0.5213 -0.2104
vn 0.8026 -0.1461 -0.5783
vn 0.8299 -0.3987 -0.3903
vn 0.9156 -0.3479 -0.2015
vn -0.3618 -0.9279 0.0893
vn -0.0050 -0.9873 0.1586
vn -0.0185 -0.9926 0.1201
vn -0.2008 -0.9796 -0.0097
vn 0.8254 -0.5308 -0.1920
vn 0.4855 -0.8656 0.1227
vn 0.2933 -0.9390 0.1796
vn 0.7654 0.6432 -0.0198
vn 0.7529 0.5527 -0.3573
vn 0.8366 -0.2290 -0.4976
vn 0.0394 0.9977 0.0543
vn 0.1396 0.9899 0.0229
vn -0.3757 -0.9154 -0.1446
vn 0.8419 -0.5274 0.1146
vn 0.9614 0.0860 -0.2615
vn 0.7358 -0.6657 -0.1245
vn 0.7784 -0.6105 -0.1460
vn -0.7145 0.6170 0.3299
vn 0.0600 0.9981 0.0104
vn 0.1000 0.9913 0.0854
vn 0.2032 0.9741 0.0989
vn 0.1446 -0.9895 -0.0046
vn 0.4578 -0.8885 0.0324
vn 0.8150 0.1380 -0.5628
vn -0.1016 -0.9935 -0.0517
vn -0.0411 -0.9918 0.1212
vn -0.2988 0.8629 0.4075
vn -0.1110 0.9915 -0.0678
vn 0.6333 -0.3944 0.6659
vn -0.7920 0.5515 0.2618
vn -0.2203 -0.8910 -0.3970
vn -0.3496 -0.9085 -0.2291
vn -0.1069 -0.9243 -0.3663
vn 0.7754 -0.1092 -0.6219
vn 0.5381 0.0072 -0.8428
vn -0.4375 0.4762 -0.7628
vn 0.6137 0.0453 -0.7883
vn 0.5834 -0.4004 -0.7066
vn -0.9051 0.2739 0.3252
vn -0.5313 0.8449 0.0621
vn -0.3742 0.9264 -0.0424
vn -0.0685 -0.9960 0.0566
vn -0.4146 0.9093 -0.0365
vn 0.4579 -0.8129 0.3598
vn 0.2696 -0.9191 0.2874
vn 0.7969 0.4474 -0.4059
vn 0.4697 -0.8792 0.0804
vn 0.8308 -0.4455 -0.3336
vn 0.6323 -0.7743 0.0256
vn 0.8901 -0.0753 -0.4495
vn 0.8485 -0.2463 -0.4683
vn 0.2536 -0.9651 0.0652
vn 0.1391 0.8347 0.5328
vn -0.6632 0.7199 -0.2048
vn 0.2952 -0.8009 0.5210
vn -0.0537 0.9948 0.0860
vn 0.6549 -0.7541 0.0496
vn 0.8534 -0.2829 -0.4379
vn 0.7240 -0.2259 -0.6517
vn 0.5421 -0.8053 0.2400
vn 0.8414 -0.5114 -0.1748
vn -0.7625 0.5584 0.3266
vn -0.7810 0.5089 0.3619
vn -0.7837 0.5233 0.3346
vn -0.6450 0.6817 0.3454
vn -0.9410 0.2408 -0.2376
vn -0.7808 -0.4956 -0.3804
vn -0.3543 -0.9346 -0.0324
vn 0.6546 -0.7408 0.1508
vn -0.2942 -0.9544 -0.0505
vn 0.6102 -0.7906 0.0522
vn 0.3879 -0.6058 0.6947
vn 0.4633 0.1633 0.8710
vn 0.4893 -0.8252 0.2822
vn -0.1369 -0.7158 0.6847
vn -0.1521 -0.9576 -0.2446
vn -0.1465 0.9630 0.2264
vn 0.8641 0.2548 -0.4339
vn -0.0301 0.9354 -0.3523
vn -0.4190 0.8976 -0.1368
vn 0.2799 -0.5777 0.7667
vn 0.3099 -0.4745 0.8239
vn 0.3811 -0.7912 0.4784
vn 0.3154 0.2847 0.9053
vn 0.2103 -0.7009 0.6815
vn 0.8057 -0.5565 -0.2028
vn -0.3448 -0.8885 0.3029
vn -0.6296 -0.7374 0.2446
vn -0.2146 -0.9603 0.1780
vn -0.5583 -0.8240 0.0968
vn -0.3020 0.6272 0.7180
vn -0.2826 0.8217 0.4949
vn -0.0619 0.7788 0.6242
vn -0.2325 0.4024 0.8854
vn 0.1396 -0.2027 0.9692
vn 0.2442 -0.5030 0.8290
vn 0.5503 -0.7795 0.2992
vn -0.0319 0.9312 0.3632
vn 0.4225 -0.8117 0.4032
vn 0.0133 0.9912 0.1320
vn -0.7571 0.6528 -0.0252
vn 0.3110 -0.9026 0.2976
vn 0.3573 -0.8791 -0.3153
vn 0.7747 -0.5807 -0.2504
vn -0.2753 0.9611 0.0200
vn -0.0099 0.6481 0.7615
vn -0.3178 0.7803 0.5386
vn -0.2182 0.8066 0.5493
vn -0.1936 0.9782 -0.0753
vn -0.1164 0.9896 -0.0845
vn 0.3341 -0.3368 0.8803
vn -0.5564 0.8305 -0.0266
vn 0.8935 -0.0668 -0.4441
vn -0.1222 -0.9770 -0.1750
vn -0.3971 -0.9177 0.0099
vn -0.9868 0.1609 -0.0181
vn -0.7593 0.0209 0.6504
vn -0.5713 0.8139 0.1057
vn -0.5787 0.8129 -0.0651
vn -0.5772 0.8164 -0.0172
vn -0.9901 -0.1353 0.0369
vn -0.4677 0.4924 0.7341
vn 0.3304 -0.9389 0.0966
vn 0.8525 -0.4554 -0.2566
vn 0.6610 -0.1744 0.7299
vn 0.6959 -0.3544 0.6246
vn 0.8231 -0.5641 -0.0650
vn 0.8295 -0.4457 -0.3365
vn -0.5013 -0.5596 0.6600
vn 0.9115 -0.2184 -0.3486
vn 0.8806 0.4573 -0.1241
vn -0.0189 0.9925 -0.1206
vn -0.0247 0.6725 0.7397
vn -0.7416 0.6303 0.2299
vn -0.1450 0.8477 0.5103
vn 0.2704 0.7947 0.5435
vn -0.0996 0.7573 0.6454
vn 0.8368 0.1559 0.5249
vn -0.1075 0.9916 -0.0715
vt 0.000326 0.628350
vt 0.056532 0.641048
vt 0.006225 0.674834
vt 0.252354 0.108039
vt 0.236489 0.122026
vt 0.147664 0.112274
vt 0.455757 0.031974
vt 0.435957 0.082679
vt 0.433018 0.023998
vt 0.491482 0.854156
vt 0.438285 0.836789
vt 0.443827 0.800601
vt 0.050833 0.689314
vt 0.322158 0.060009
vt 0.396482 0.831169
vt 0.403030 0.764916
vt 0.899165 0.447880
vt 0.915650 0.403185
vt 0.966861 0.415094
vt 0.523742 0.108811
vt 0.506090 0.136005
vt 0.456520 0.168304
vt 0.370387 0.829268
vt 0.457569 0.753445
vt 0.954947 0.257885
vt 0.912082 0.345171
vt 0.914039 0.257885
vt 0.525407 0.207452
vt 0.289561 0.779335
vt 0.307966 0.716757
vt 0.996754 0.592202
vt 0.977794 0.658077
vt 0.941789 0.607391
vt 0.037102 0.987626
vt 0.064626 0.857186
vt 0.108057 0.984916
vt 0.064592 0.856382
vt 0.065301 0.856072
vt 0.386082 0.117380
vt 0.386980 0.118461
vt 0.369780 0.210543
vt 0.577573 0.129703
vt 0.396702 0.695406
vt 0.426175 0.716804
vt 0.256047 0.845252
vt 0.272073 0.822345
vt 0.175106 0.796857
vt 0.175132 0.757255
vt 0.219427 0.754311
vt 0.692000 0.991329
vt 0.694106 0.950849
vt 0.733309 0.985892
vt 0.386650 0.732053
vt 0.359454 0.714829
vt 0.386479 0.731221
vt 0.894572 0.267799
vt 0.802438 0.244869
vt 0.852160 0.213116
vt 0.312982 0.052004
vt 0.217995 0.026366
vt 0.326681 0.030601
vt 0.219270 0.140567
vt 0.001088 0.569773
vt 0.001360 0.623632
vt 0.000930 0.623996
vt 0.000309 0.623827
vt 0.326128 0.029879
vt 0.326432 0.028880
vt 0.412819 0.023845
vt 0.948292 0.285985
vt 0.386439 0.731574
vt 0.611770 0.334673
vt 0.530153 0.343769
vt 0.581715 0.261325
vt 0.214809 0.724598
vt 0.642074 0.908207
vt 0.762378 0.947582
vt 0.743978 0.974911
vt 0.030416 0.697543
vt 0.029845 0.697738
vt 0.029241 0.697637
vt 0.010869 0.836483
vt 0.011653 0.836272
vt 0.027412 0.920068
vt 0.012253 0.835749
vt 0.006892 0.741293
vt 0.032944 0.815477
vt 0.526284 0.852491
vt 0.150936 0.735743
vt 0.823807 0.285473
vt 0.192526 0.652270
vt 0.146765 0.631170
vt 0.221232 0.630684
vt 0.801235 0.192604
vt 0.897880 0.069167
vt 0.895051 0.020070
vt 0.909193 0.037206
vt 0.839871 0.017537
vt 0.952231 0.677654
vt 0.915429 0.669284
vt 0.534682 0.982551
vt 0.586885 0.956992
vt 0.594240 0.974015
vt 0.570747 0.957974
vt 0.870064 0.156997
vt 0.849199 0.164398
vt 0.666335 0.024802
vt 0.780260 0.024802
vt 0.764741 0.053069
vt 0.910009 0.998744
vt 0.847329 0.968964
vt 0.866357 0.946012
vt 0.829643 0.999698
vt 0.208432 0.547384
vt 0.147582 0.569265
vt 0.138455 0.559313
vt 0.273331 0.764115
vt 0.127182 0.607008
vt 0.081574 0.514504
vt 0.471686 0.377371
vt 0.360208 0.217221
vt 0.391492 0.212964
vt 0.138832 0.221354
vt 0.032415 0.299237
vt 0.073682 0.228446
vt 0.926973 0.932678
vt 0.892243 0.937201
vt 0.138404 0.611904
vt 0.865525 0.700299
vt 0.829274 0.673079
vt 0.900696 0.599345
vt 0.781379 0.168582
vt 0.750701 0.107854
vt 0.781103 0.945569
vt 0.771959 0.875202
vt 0.787933 0.848734
vt 0.678167 0.998980
vt 0.960945 0.979616
vt 0.031048 0.496176
vt 0.490495 0.297581
vt 0.536309 0.219332
vt 0.508643 0.213656
vt 0.998079 0.060041
vt 0.918117 0.033870
vt 0.980842 0.023894
vt 0.362740 0.106090
vt 0.307580 0.058269
vt 0.492517 0.900310
vt 0.549208 0.933280
vt 0.372598 0.930893
vt 0.813458 0.595835
vt 0.775382 0.671652
vt 0.807023 0.533690
vt 0.941293 0.145459
vt 0.948797 0.231866
vt 0.927311 0.130819
vt 0.024258 0.028686
vt 0.064616 0.021192
vt 0.043476 0.042242
vt 0.043845 0.042533
vt 0.191376 0.621242
vt 0.165312 0.597045
vt 0.841512 0.599032
vt 0.808357 0.651371
vt 0.800733 0.718240
vt 0.942095 0.087581
vt 0.953965 0.122177
vt 0.309134 0.141906
vt 0.309704 0.140775
vt 0.309534 0.139780
vt 0.954417 0.122411
vt 0.954769 0.122132
vt 0.001930 0.861013
vt 0.029765 0.947308
vt 0.000000 0.944669
vt 0.925074 0.077993
vt 0.799721 0.900805
vt 0.829303 0.893920
vt 0.754754 0.640056
vt 0.733976 0.668635
vt 0.758822 0.697277
vt 0.851601 0.082802
vt 0.687331 0.084171
vt 0.700427 0.042117
vt 0.835049 0.102450
vt 0.880984 0.140330
vt 0.998782 0.494785
vt 0.982637 0.450101
vt 0.995122 0.322974
vt 0.812853 0.146635
vt 0.809846 0.118647
vt 0.081615 0.186788
vt 0.124966 0.116160
vt 0.118883 0.189517
vt 0.812938 0.830407
vt 0.128204 0.855253
vt 0.141524 0.701010
vt 0.155115 0.813222
vt 0.869576 0.000912
vt 0.870222 0.000000
vt 0.873199 0.002022
vt 0.813416 0.830620
vt 0.921877 0.134475
vt 0.993403 0.752172
vt 0.110325 0.673083
vt 0.079318 0.845673
vt 0.047014 0.707191
vt 0.172770 0.803147
vt 0.210210 0.843468
vt 0.092526 0.918918
vt 0.154118 0.898211
vt 0.175007 0.914863
vt 0.173911 0.952316
vt 0.117968 0.947881
vt 0.038207 0.850406
vt 0.020229 0.139563
vt 0.039513 0.085973
vt 0.881574 0.839210
vt 0.853953 0.834554
vt 0.831172 0.800699
vt 0.618725 0.964078
vt 0.649017 0.982871
vt 0.933886 0.439324
vt 0.934086 0.484604
vt 0.910895 0.493107
vt 0.201110 0.598657
vt 0.294353 0.970147
vt 0.230075 0.975700
vt 0.191969 0.956141
vt 0.064173 0.645459
vt 0.149712 0.955820
vt 0.233353 0.983196
vt 0.136572 0.994009
vt 0.098744 0.643732
vt 0.043024 0.042190
vt 0.747192 0.845761
vt 0.032858 0.705164
vt 0.032858 0.811042
vt 0.002927 0.803826
vt 0.277398 0.921624
vt 0.625529 0.959964
vt 0.620987 0.869008
vt 0.642979 0.926342
vt 0.961136 0.336939
vt 0.979893 0.266421
vt 0.976318 0.359684
vt 0.616042 0.932592
vt 0.863095 0.098663
vt 0.882574 0.701180
vt 0.071748 0.090484
vt 0.988161 0.922469
vt 0.972150 0.982664
vt 0.971182 0.906519
vt 0.883786 0.472633
vt 0.784594 0.805132
vt 0.600084 0.841907
vt 0.716839 0.719962
vt 0.553640 0.937960
vt 0.499651 0.983594
vt 0.424358 0.937934
vt 0.512113 0.750276
vt 0.410815 0.603018
vt 0.508112 0.632345
vt 0.853969 0.868259
vt 0.085020 0.678388
vt 0.058543 0.669346
vt 0.996051 0.069833
vt 0.631564 0.369750
vt 0.536685 0.371766
vt 0.660810 0.322485
vt 0.697288 0.362637
vt 0.700640 0.335850
vt 0.623334 0.391230
vt 0.641198 0.418061
vt 0.722473 0.401315
vt 0.916276 0.182496
vt 0.244622 0.871807
vt 0.245044 0.871388
vt 0.269025 0.881690
vt 0.245361 0.871070
vt 0.874345 0.863661
vt 0.820806 0.862499
vt 0.860630 0.845918
vt 0.217599 0.790304
vt 0.452006 0.895986
vt 0.301137 0.859954
vt 0.423726 0.862036
vt 0.907994 0.539320
vt 0.889026 0.533531
vt 0.655974 0.086293
vt 0.655200 0.046106
vt 0.793063 0.764982
vt 0.824068 0.768020
vt 0.273538 0.929655
vt 0.901281 0.768988
vt 0.934921 0.831798
vt 0.888646 0.843258
vt 0.908767 0.768645
vt 0.887118 0.659424
vt 0.908767 0.685947
vt 0.677454 0.851116
vt 0.851222 0.035932
vt 0.890548 0.133920
vt 0.857442 0.075489
vt 0.377001 0.426309
vt 0.423113 0.505485
vt 0.418641 0.539389
vt 0.752555 0.929418
vt 0.275136 0.883657
vt 0.358774 0.929162
vt 0.639200 0.893165
vt 0.684735 0.915942
vt 0.819179 0.822736
vt 0.050340 0.212689
vt 0.034028 0.117792
vt 0.082435 0.103362
vt 0.931987 0.590086
vt 0.966048 0.484891
vt 0.977020 0.589232
vt 0.947583 0.598879
vt 0.953098 0.159605
vt 0.981160 0.175926
vt 0.963487 0.305393
vt 0.842771 0.040812
vt 0.959665 0.425313
vt 1.000000 0.586321
vt 0.713262 0.919728
vt 0.234995 0.478191
vt 0.233785 0.387483
vt 0.382981 0.265781
vt 0.328331 0.353404
vt 0.007128 0.496678
vt 0.017824 0.440784
vt 0.137027 0.459324
vt 0.774869 0.421311
vt 0.804474 0.408157
vt 0.870195 0.500746
vt 0.849268 0.431660
vt 0.431220 0.672136
vt 0.278720 0.688893
vt 0.220835 0.721101
vt 0.265460 0.673266
vt 0.915073 0.600666
vt 0.247287 0.653657
vt 0.231686 0.649786
vt 0.233616 0.635880
vt 0.142848 0.107234
vt 0.729332 0.927424
vt 0.096295 0.296401
vt 0.148090 0.222388
vt 0.160930 0.238793
vt 0.394879 0.947893
vt 0.393123 0.981643
vt 0.284099 0.910572
vt 0.193863 0.001801
vt 0.213191 0.045531
vt 0.106562 0.017727
vt 0.774545 0.988178
vt 0.799333 0.911327
vt 0.805506 0.993018
vt 0.259861 0.146434
vt 0.364822 0.177974
vt 0.231410 0.228371
vt 0.778734 0.341793
vt 0.748900 0.384347
vt 0.714534 0.307077
vt 0.999531 0.501567
vt 0.074035 0.440882
vt 0.333031 0.418205
vt 0.218658 0.499835
vt 0.311863 0.424189
vt 0.584462 0.844379
vt 0.553610 0.849386
vt 0.585610 0.783885
vt 0.698444 0.226840
vt 0.743323 0.261461
vt 0.682707 0.244577
vt 0.788472 0.261709
vt 0.750063 0.210340
vt 0.797464 0.212474
vt 0.351538 0.351833
vt 0.721123 0.176309
vt 0.379964 0.380858
vt 0.750758 0.414650
vt 0.806959 0.315620
vt 0.115006 0.065666
vt 0.950557 0.950384
vt 0.906348 0.894708
vt 0.925098 0.894742
vt 0.752995 0.467968
vt 0.829334 0.503826
vt 0.668089 0.489873
vt 0.671174 0.551015
vt 0.676943 0.416095
vt 0.796845 0.449188
vt 0.655571 0.433108
vt 0.446462 0.539804
vt 0.435527 0.505995
vt 0.551924 0.588881
vt 0.668685 0.985808
vt 0.686438 0.854446
vt 0.592315 0.937113
vt 0.594110 0.877272
vt 0.616911 0.922795
vt 0.720767 0.275578
vt 0.721035 0.275764
vt 0.389958 0.420213
vt 0.399058 0.401653
vt 0.390356 0.419609
vt 0.390302 0.420120
vt 0.721224 0.275239
vt 0.736732 0.265464
vt 0.542816 0.909768
vt 0.537121 0.851519
vt 0.656012 0.102374
vt 0.446410 0.079307
vt 0.580381 0.074645
vt 0.503551 0.826068
vt 0.603728 0.702065
vt 0.851977 0.594380
vt 0.774793 0.048068
vt 0.301997 0.973166
vt 0.213227 0.350112
vt 0.214436 0.292312
vt 0.231231 0.328277
vt 0.307892 0.303060
vt 0.650554 0.046195
vt 0.638895 0.074129
vt 0.562920 0.068411
vt 0.189955 0.228878
vt 0.196281 0.303591
vt 0.173116 0.292797
vt 0.207238 0.484421
vt 0.105623 0.524962
vt 0.150490 0.456873
vt 0.360526 0.704205
vt 0.414343 0.672228
vt 0.163649 0.355694
vt 0.871931 0.296141
vt 0.685129 0.956785
vt 0.587633 0.430678
vt 0.534376 0.471853
vt 0.424605 0.412296
vt 0.447380 0.879884
vt 0.977655 0.893081
vt 0.142584 0.409311
vt 0.197988 0.403125
vt 0.197610 0.439290
vt 0.980146 0.421960
vt 0.115562 0.335250
vt 0.085616 0.275550
vt 0.126730 0.317470
vt 0.431345 1.000000
vt 0.409704 0.936689
vt 0.487016 0.988219
vt 0.643530 0.575338
vt 0.657433 0.616118
vt 0.578844 0.630592
vt 0.972330 0.803281
vt 0.496799 0.541494
vt 0.623734 0.507892
vt 0.627616 0.546444
vt 0.446257 0.555045
vt 0.614122 0.548102
vt 0.446282 0.555641
vt 0.816404 0.514999
vt 0.701195 0.628990
vt 0.009907 0.398912
vt 0.133740 0.402074
vt 0.535633 0.526876
vt 0.454679 0.024002
vt 0.652760 0.024002
vt 0.500522 0.045783
vt 0.169328 0.104986
vt 0.155845 0.071338
vt 0.959287 0.907147
vt 0.202442 0.095420
vt 0.745075 0.240088
vt 0.157622 0.322628
vt 0.212221 0.092242
vt 0.452872 0.057948
vt 0.422151 0.397832
vt 0.783046 0.313580
vt 0.754416 0.276193
vt 0.789483 0.286908
vt 0.914689 0.605042
vt 0.535583 0.492769
vt 0.535990 0.493541
vt 0.894859 0.450415
vt 0.563058 0.113400
vt 0.266360 0.250121
vt 0.098979 0.061194
vt 0.941514 0.917540
vt 0.984010 0.907533
vt 0.559412 0.632325
vt 0.534560 0.661148
vt 0.181655 0.200570
vt 0.096540 0.059660
vt 0.090499 0.046275
vt 0.090763 0.032897
vt 0.313557 0.636232
vt 0.051069 0.385130
vt 0.039417 0.307554
vt 0.086040 0.351181
vt 0.134544 0.173068
vt 0.169688 0.239800
vt 0.071239 0.023874
vt 0.957290 0.933809
vt 0.272089 0.609927
vt 0.129068 0.041767
vt 0.379254 0.344814
vt 0.317632 0.698509
vt 0.347152 0.649997
vt 0.245672 0.580747
vt 0.221828 0.575985
vt 0.218806 0.511597
vt 0.292761 0.560601
vt 0.260226 0.518582
vt 0.529724 0.151429
vt 0.655449 0.157477
vt 0.677045 0.197456
vt 0.204413 0.509857
vt 0.573813 0.598155
vt 0.235878 0.377190
vt 0.230185 0.456781
vt 0.665928 0.229680
vt 0.445269 0.382751
vt 0.274614 0.468606
vt 0.321425 0.444366
vt 0.711823 0.146405
vt 0.649656 0.319604
vt 0.678511 0.267040
vt 0.638898 0.695372
vt 0.638064 0.695470
vt 0.637232 0.695542
vt 0.678600 0.267020
vt 0.678737 0.267120
vt 0.455371 0.581195
vt 0.423272 0.579488
vt 0.415018 0.577778
vt 0.390644 0.607776
vt 0.350626 0.561312
vt 0.347200 0.586193
vt 0.447477 0.562342
vt 0.414663 0.306805
vt 0.378329 0.448237
vt 0.614974 0.548604
vt 0.614184 0.548777
s 1
usemtl tripo_mat_084f1e31.002
f 10/1/1 149/2/2 4/3/3
f 2/4/4 9/5/5 4/6/3
f 149/7/2 10/8/1 143/9/6
f 2/10/4 145/11/7 160/12/8
f 4/3/3 149/2/2 145/13/7
f 143/9/6 10/8/1 29/14/9
f 145/11/7 149/15/2 160/12/8
f 176/16/10 160/12/8 149/15/2
f 10/17/1 4/18/3 28/19/11
f 28/20/11 30/21/12 10/8/1
f 10/8/1 30/21/12 39/22/13
f 176/16/10 149/15/2 143/23/6
f 176/16/10 186/24/14 160/12/8
f 1/25/15 160/26/8 154/27/16
f 30/21/12 50/28/17 39/22/13
f 146/29/18 175/30/19 176/16/10
f 50/31/17 57/32/20 39/33/13
f 29/34/9 25/35/21 41/36/22
f 26/37/23 25/35/21 29/34/9
f 25/35/21 26/37/23 41/36/22
f 26/37/23 27/38/24 41/36/22
f 26/39/23 29/14/9 10/8/1
f 26/39/23 10/8/1 27/40/24
f 27/40/24 10/8/1 41/41/22
f 41/41/22 10/8/1 39/22/13
f 28/20/11 37/42/25 30/21/12
f 197/43/26 198/44/27 176/16/10
f 29/45/9 8/46/28 143/23/6
f 186/24/14 176/16/10 198/44/27
f 186/47/14 198/48/27 203/49/29
f 200/50/30 197/51/26 185/52/31
f 182/53/32 197/43/26 176/16/10
f 185/54/31 197/43/26 184/55/33
f 184/55/33 197/43/26 182/53/32
f 146/29/18 176/16/10 143/23/6
f 146/29/18 143/23/6 8/46/28
f 176/16/10 185/54/31 182/53/32
f 30/56/12 45/57/34 50/58/17
f 9/59/5 24/60/35 13/61/36
f 9/5/5 13/62/36 4/6/3
f 4/63/3 13/64/36 14/65/37
f 4/63/3 14/65/37 15/66/38
f 14/67/37 13/61/36 24/60/35
f 14/67/37 24/60/35 15/68/38
f 4/69/3 15/68/38 24/60/35
f 24/70/35 28/19/11 4/18/3
f 183/71/39 182/53/32 185/54/31
f 183/71/39 185/54/31 184/55/33
f 183/71/39 184/55/33 182/53/32
f 65/72/40 45/73/34 67/74/41
f 214/75/42 203/49/29 198/48/27
f 40/76/43 29/77/9 41/78/22
f 145/13/7 139/79/44 138/80/45
f 145/13/7 138/80/45 137/81/46
f 145/13/7 137/81/46 4/3/3
f 137/82/46 138/83/45 2/84/4
f 2/84/4 138/83/45 139/85/44
f 137/81/46 2/86/4 4/3/3
f 2/84/4 139/85/44 145/87/7
f 160/12/8 1/88/15 2/10/4
f 198/48/27 197/89/26 214/75/42
f 45/57/34 30/56/12 37/90/25
f 232/91/47 197/89/26 227/92/48
f 232/91/47 237/93/49 214/75/42
f 50/58/17 45/57/34 65/94/40
f 175/95/19 155/96/50 161/97/51
f 146/98/18 155/96/50 175/95/19
f 39/33/13 57/32/20 49/99/52
f 41/100/22 39/33/13 49/99/52
f 50/101/17 64/102/53 57/103/20
f 59/104/54 64/102/53 50/101/17
f 59/105/54 50/58/17 62/106/55
f 53/107/56 41/108/22 49/109/52
f 185/54/31 176/16/10 175/30/19
f 28/110/11 35/111/57 42/112/58
f 28/110/11 24/113/35 35/111/57
f 214/114/42 233/115/59 229/116/60
f 214/75/42 229/117/60 203/49/29
f 229/116/60 236/118/61 203/119/29
f 37/120/25 81/121/62 77/122/63
f 81/123/62 37/124/25 52/125/64
f 52/126/64 28/110/11 43/127/65
f 237/128/49 233/115/59 214/114/42
f 199/129/66 211/130/67 185/131/31
f 78/132/68 94/133/69 50/58/17
f 65/94/40 78/132/68 50/58/17
f 3/134/70 148/135/71 155/136/50
f 200/50/30 201/137/72 197/51/26
f 28/110/11 52/126/64 37/138/25
f 236/118/61 186/139/14 203/119/29
f 45/73/34 46/140/73 58/141/74
f 46/140/73 77/122/63 54/142/75
f 46/140/73 45/73/34 37/120/25
f 154/143/16 160/144/8 174/145/76
f 197/89/26 232/91/47 214/75/42
f 16/146/77 2/4/4 1/147/15
f 174/148/76 160/149/8 216/150/78
f 201/151/72 223/152/79 197/153/26
f 16/154/77 21/155/80 24/156/35
f 154/157/16 174/158/76 164/159/81
f 164/159/81 174/158/76 165/160/82
f 227/92/48 238/161/83 232/91/47
f 234/162/84 238/161/83 227/92/48
f 200/163/30 211/130/67 215/164/85
f 200/163/30 215/164/85 201/151/72
f 223/152/79 211/130/67 220/165/86
f 211/130/67 199/129/66 220/165/86
f 9/166/5 7/167/87 16/154/77
f 7/168/87 9/5/5 6/169/88
f 6/169/88 9/5/5 5/170/89
f 7/167/87 6/171/88 16/154/77
f 16/154/77 6/171/88 5/172/89
f 16/146/77 5/170/89 2/4/4
f 2/4/4 5/170/89 9/5/5
f 199/173/66 185/174/31 175/175/19
f 43/127/65 28/110/11 42/112/58
f 175/95/19 161/97/51 180/176/90
f 211/130/67 200/163/30 185/131/31
f 48/177/91 42/112/58 35/111/57
f 42/112/58 48/177/91 51/178/92
f 223/152/79 201/151/72 215/164/85
f 227/179/48 223/152/79 235/180/93
f 228/181/94 235/180/93 223/152/79
f 186/182/14 225/183/95 216/184/78
f 45/73/34 58/141/74 67/74/41
f 88/185/96 64/186/53 59/105/54
f 24/156/35 9/166/5 16/154/77
f 160/187/8 186/188/14 216/189/78
f 62/106/55 75/190/97 90/191/98
f 62/106/55 90/191/98 59/105/54
f 90/192/98 110/193/99 88/194/96
f 90/191/98 88/185/96 59/105/54
f 3/134/70 155/136/50 153/195/100
f 146/196/18 3/197/70 152/198/101
f 151/199/102 146/98/18 152/200/101
f 146/98/18 151/199/102 153/201/100
f 146/98/18 153/201/100 155/96/50
f 153/195/100 152/202/101 3/134/70
f 152/200/101 153/201/100 151/199/102
f 194/203/103 175/95/19 180/176/90
f 223/152/79 227/179/48 197/153/26
f 49/99/52 57/32/20 79/204/104
f 12/205/105 8/206/28 23/207/106
f 8/206/28 12/205/105 3/197/70
f 146/196/18 8/206/28 3/197/70
f 50/58/17 75/190/97 62/106/55
f 77/208/63 93/209/107 54/210/75
f 54/210/75 93/209/107 82/211/108
f 69/212/109 67/213/41 58/214/74
f 8/206/28 29/215/9 23/207/106
f 172/216/110 154/157/16 171/217/111
f 161/218/51 155/219/50 159/220/112
f 56/221/113 66/222/114 57/103/20
f 56/223/113 76/224/115 74/225/116
f 236/118/61 229/116/60 233/115/59
f 234/162/84 236/226/61 238/161/83
f 233/115/59 237/128/49 236/118/61
f 84/227/117 52/228/64 43/229/65
f 225/230/95 186/139/14 236/118/61
f 187/231/118 193/232/119 171/233/111
f 238/161/83 237/93/49 232/91/47
f 225/230/95 236/118/61 234/234/84
f 163/235/120 154/157/16 164/159/81
f 164/159/81 165/160/82 163/235/120
f 163/235/120 165/160/82 171/217/111
f 163/235/120 171/217/111 154/157/16
f 171/217/111 165/160/82 174/158/76
f 156/236/121 155/136/50 148/135/71
f 175/237/19 194/238/103 199/239/66
f 69/212/109 65/240/40 67/213/41
f 236/226/61 237/93/49 238/161/83
f 53/241/56 49/242/52 60/243/122
f 60/244/122 49/245/52 79/246/104
f 37/120/25 77/122/63 46/140/73
f 57/103/20 76/247/115 56/221/113
f 57/103/20 64/102/53 76/247/115
f 69/212/109 58/214/74 82/211/108
f 64/186/53 88/185/96 73/248/123
f 159/220/112 191/249/124 161/218/51
f 187/250/118 171/217/111 174/158/76
f 194/251/103 180/252/90 192/253/125
f 66/254/114 56/223/113 74/225/116
f 217/255/126 174/256/76 216/257/78
f 172/258/110 140/259/127 154/260/16
f 41/261/22 63/262/128 40/263/43
f 43/127/65 42/112/58 68/264/129
f 227/265/48 235/266/93 234/234/84
f 46/140/73 54/142/75 58/141/74
f 54/210/75 82/211/108 58/214/74
f 180/176/90 161/97/51 192/267/125
f 192/268/125 161/269/51 191/270/124
f 208/271/130 192/268/125 202/272/131
f 192/268/125 208/271/130 194/273/103
f 208/271/130 199/274/66 194/273/103
f 208/271/130 218/275/132 199/274/66
f 140/276/127 1/25/15 154/27/16
f 65/240/40 93/209/107 85/277/133
f 65/240/40 85/277/133 87/278/134
f 65/240/40 87/278/134 78/279/68
f 87/278/134 86/280/135 78/279/68
f 78/279/68 86/280/135 93/209/107
f 93/209/107 86/280/135 87/278/134
f 85/277/133 93/209/107 87/278/134
f 69/212/109 93/209/107 65/240/40
f 94/281/69 93/282/107 77/283/63
f 93/209/107 94/284/69 78/279/68
f 1/285/15 21/286/80 16/287/77
f 223/152/79 215/164/85 211/130/67
f 66/254/114 74/225/116 92/288/136
f 92/288/136 97/289/137 66/254/114
f 234/234/84 235/266/93 225/230/95
f 225/183/95 235/290/93 228/291/94
f 228/181/94 223/152/79 222/292/138
f 222/292/138 216/257/78 228/181/94
f 216/257/78 222/292/138 217/255/126
f 225/183/95 228/291/94 216/184/78
f 218/293/132 220/165/86 199/129/66
f 68/294/129 84/227/117 43/229/65
f 52/295/64 84/296/117 81/297/62
f 35/298/57 47/299/139 48/300/91
f 187/301/118 174/256/76 217/255/126
f 79/302/104 57/303/20 66/304/114
f 24/305/35 21/306/80 36/307/140
f 75/190/97 50/58/17 94/133/69
f 94/281/69 77/283/63 81/297/62
f 144/308/141 148/135/71 3/134/70
f 11/309/142 1/285/15 140/310/127
f 11/309/142 21/286/80 1/285/15
f 156/236/121 148/135/71 181/311/143
f 181/311/143 148/135/71 170/312/144
f 156/313/121 159/220/112 155/219/50
f 222/292/138 223/152/79 220/165/86
f 75/314/97 94/315/69 115/316/145
f 74/225/116 76/224/115 101/317/146
f 92/288/136 74/225/116 101/317/146
f 73/318/123 120/319/147 117/320/148
f 90/192/98 75/314/97 115/316/145
f 42/112/58 51/178/92 68/264/129
f 35/321/57 24/322/35 36/323/140
f 71/324/149 79/302/104 66/304/114
f 117/320/148 64/325/53 73/318/123
f 120/319/147 73/318/123 116/326/150
f 158/327/151 170/312/144 148/135/71
f 90/192/98 115/316/145 110/193/99
f 93/209/107 69/212/109 82/211/108
f 140/328/127 172/329/110 179/330/152
f 179/330/152 162/331/153 140/328/127
f 144/332/141 3/333/70 147/334/154
f 191/270/124 202/272/131 192/268/125
f 217/335/126 212/336/155 187/337/118
f 193/338/119 187/337/118 212/336/155
f 64/325/53 117/320/148 76/224/115
f 76/224/115 117/320/148 101/317/146
f 63/262/128 41/261/22 53/339/56
f 112/340/156 97/341/137 121/342/157
f 109/343/158 92/288/136 101/317/146
f 109/344/158 101/345/146 117/346/148
f 88/194/96 110/193/99 116/347/150
f 157/348/159 158/327/151 148/135/71
f 157/348/159 148/135/71 144/308/141
f 218/293/132 222/292/138 220/165/86
f 103/349/160 79/350/104 71/351/149
f 91/352/161 99/353/162 51/354/92
f 99/355/162 104/356/163 68/357/129
f 48/358/91 91/359/161 51/360/92
f 91/361/161 48/362/91 95/363/164
f 226/364/165 230/365/166 202/272/131
f 230/365/166 218/275/132 208/271/130
f 230/365/166 208/271/130 202/272/131
f 209/366/167 226/364/165 202/272/131
f 116/326/150 73/318/123 88/367/96
f 147/334/154 3/333/70 135/368/168
f 189/369/169 156/370/121 181/371/143
f 170/372/144 158/373/151 166/374/170
f 177/375/171 166/376/170 173/377/172
f 170/378/144 188/379/173 181/380/143
f 181/371/143 195/381/174 189/369/169
f 195/382/174 181/380/143 188/379/173
f 189/369/169 195/381/174 204/383/175
f 230/365/166 217/335/126 222/384/138
f 230/365/166 222/384/138 218/275/132
f 212/336/155 230/365/166 226/364/165
f 212/336/155 226/364/165 221/385/176
f 118/386/177 116/347/150 110/193/99
f 119/387/178 115/388/145 106/389/179
f 118/386/177 110/193/99 115/316/145
f 12/390/105 23/391/106 22/392/180
f 38/393/181 22/392/180 23/391/106
f 132/394/182 3/395/70 12/390/105
f 22/392/180 133/396/183 12/390/105
f 136/397/184 3/398/70 132/399/182
f 191/270/124 209/366/167 202/272/131
f 53/241/56 60/243/122 89/400/185
f 84/296/117 106/389/179 81/297/62
f 159/220/112 156/313/121 189/401/169
f 209/402/167 189/403/169 205/404/186
f 209/366/167 205/405/186 206/406/187
f 205/407/186 189/369/169 213/408/188
f 207/409/189 206/410/187 205/407/186
f 207/409/189 205/407/186 213/408/188
f 206/406/187 207/411/189 209/366/167
f 209/366/167 207/411/189 213/412/188
f 209/402/167 191/413/124 189/403/169
f 217/335/126 230/365/166 212/336/155
f 166/374/170 158/373/151 157/414/159
f 38/415/181 29/416/9 40/417/43
f 157/414/159 144/418/141 173/419/172
f 66/254/114 97/289/137 112/420/156
f 112/421/156 71/324/149 66/304/114
f 51/354/92 99/353/162 68/422/129
f 63/423/128 72/424/190 61/425/191
f 72/424/190 47/426/139 61/425/191
f 44/427/192 61/428/191 47/429/139
f 109/343/158 97/289/137 92/288/136
f 97/341/137 109/344/158 121/342/157
f 102/430/193 83/431/194 96/432/195
f 83/431/194 72/424/190 63/423/128
f 72/424/190 83/431/194 102/430/193
f 96/433/195 53/434/56 89/435/185
f 53/339/56 83/436/194 55/437/196
f 83/431/194 63/423/128 55/438/196
f 115/388/145 94/281/69 81/297/62
f 212/336/155 196/439/197 193/338/119
f 60/243/122 80/440/198 89/400/185
f 134/441/199 11/442/142 140/443/127
f 191/413/124 159/444/112 189/403/169
f 84/296/117 105/445/200 106/389/179
f 80/446/198 100/447/201 98/448/202
f 100/449/201 60/244/122 79/246/104
f 60/450/122 100/447/201 80/446/198
f 106/389/179 115/388/145 81/297/62
f 79/350/104 103/349/160 100/451/201
f 103/349/160 71/351/149 108/452/203
f 172/453/110 171/454/111 193/455/119
f 134/456/199 150/457/204 142/458/205
f 53/339/56 55/437/196 63/262/128
f 84/296/117 68/459/129 105/445/200
f 21/460/80 20/461/206 34/462/207
f 31/463/208 36/307/140 21/306/80
f 31/464/208 21/460/80 34/462/207
f 32/465/209 36/307/140 31/463/208
f 150/457/204 140/466/127 162/467/153
f 136/468/184 141/469/210 3/333/70
f 21/460/80 19/470/211 20/461/206
f 19/470/211 21/460/80 11/442/142
f 20/461/206 11/442/142 133/396/183
f 44/471/192 35/472/57 36/473/140
f 140/466/127 150/457/204 134/456/199
f 120/474/147 116/347/150 122/475/212
f 118/476/177 106/389/179 105/445/200
f 122/475/212 117/477/148 120/474/147
f 116/347/150 118/386/177 122/475/212
f 173/419/172 166/374/170 157/414/159
f 166/376/170 178/478/213 170/378/144
f 108/452/203 71/351/149 112/479/156
f 68/357/129 104/356/163 119/480/178
f 44/427/192 47/429/139 35/481/57
f 204/383/175 219/482/214 213/408/188
f 231/483/215 219/484/214 224/485/216
f 221/385/176 224/485/216 196/439/197
f 70/486/217 48/300/91 47/299/139
f 11/442/142 20/461/206 17/487/218
f 19/470/211 11/442/142 17/487/218
f 19/470/211 17/487/218 18/488/219
f 19/470/211 18/488/219 20/461/206
f 18/488/219 17/487/218 20/461/206
f 172/489/110 193/338/119 196/439/197
f 209/366/167 219/484/214 231/483/215
f 226/364/165 209/366/167 231/483/215
f 29/416/9 38/415/181 23/490/106
f 47/426/139 72/424/190 70/491/217
f 48/362/91 70/491/217 95/363/164
f 188/379/173 170/378/144 178/478/213
f 118/386/177 115/316/145 107/492/220
f 118/476/177 107/493/220 106/389/179
f 119/387/178 106/389/179 107/493/220
f 105/445/200 68/459/129 119/494/178
f 142/458/205 141/495/210 132/399/182
f 147/496/154 142/458/205 173/419/172
f 114/497/221 91/361/161 95/363/164
f 111/498/222 118/499/177 105/500/200
f 189/369/169 204/383/175 213/408/188
f 173/419/172 144/418/141 147/496/154
f 127/501/223 112/340/156 121/342/157
f 128/502/224 113/503/225 123/504/226
f 128/505/224 102/430/193 113/506/225
f 103/349/160 113/503/225 100/451/201
f 113/503/225 103/349/160 123/504/226
f 135/368/168 3/333/70 141/469/210
f 115/316/145 111/498/222 107/492/220
f 111/498/222 105/500/200 107/492/220
f 115/316/145 119/507/178 111/498/222
f 105/508/200 119/387/178 107/493/220
f 111/498/222 119/507/178 118/499/177
f 125/509/227 109/344/158 117/346/148
f 219/484/214 209/366/167 213/412/188
f 122/475/212 118/386/177 119/510/178
f 204/383/175 210/511/228 219/482/214
f 210/511/228 204/383/175 195/381/174
f 135/368/168 141/469/210 147/334/154
f 95/363/164 70/491/217 102/430/193
f 102/430/193 70/491/217 72/424/190
f 108/512/203 112/340/156 127/501/223
f 103/349/160 108/452/203 123/504/226
f 108/512/203 127/501/223 123/513/226
f 132/399/182 141/495/210 136/397/184
f 126/514/229 117/346/148 122/515/212
f 119/516/178 126/514/229 122/515/212
f 221/385/176 226/364/165 231/483/215
f 133/396/183 11/442/142 134/441/199
f 132/394/182 12/390/105 133/396/183
f 128/505/224 114/497/221 102/430/193
f 126/514/229 125/509/227 117/346/148
f 130/517/230 119/516/178 124/518/231
f 119/516/178 130/517/230 126/514/229
f 89/435/185 80/446/198 98/448/202
f 109/344/158 127/501/223 121/342/157
f 172/519/110 196/520/197 190/521/232
f 212/336/155 221/385/176 196/439/197
f 133/396/183 22/392/180 20/461/206
f 188/379/173 178/478/213 177/375/171
f 83/522/194 53/434/56 96/433/195
f 133/523/183 142/458/205 132/399/182
f 63/423/128 61/425/191 44/524/192
f 113/525/225 89/435/185 98/448/202
f 113/525/225 96/433/195 89/435/185
f 179/526/152 172/519/110 190/521/232
f 221/385/176 231/483/215 224/485/216
f 114/497/221 95/363/164 102/430/193
f 224/527/216 219/482/214 210/511/228
f 104/528/163 99/529/162 124/518/231
f 124/518/231 119/516/178 104/528/163
f 178/478/213 166/376/170 177/375/171
f 125/509/227 127/501/223 109/344/158
f 188/379/173 177/375/171 195/382/174
f 195/382/174 190/521/232 210/530/228
f 20/461/206 22/392/180 38/393/181
f 134/456/199 142/458/205 133/523/183
f 173/377/172 162/531/153 179/526/152
f 162/531/153 173/377/172 169/532/233
f 162/467/153 169/533/233 150/457/204
f 150/457/204 169/533/233 168/534/234
f 150/457/204 168/534/234 167/535/235
f 168/536/234 169/532/233 173/377/172
f 168/536/234 173/377/172 167/537/235
f 167/535/235 173/419/172 150/457/204
f 150/457/204 173/419/172 142/458/205
f 38/538/181 40/263/43 63/262/128
f 63/262/128 44/539/192 38/538/181
f 114/540/221 128/541/224 129/542/236
f 131/543/237 129/542/236 128/541/224
f 34/544/207 38/538/181 44/539/192
f 210/511/228 196/545/197 224/527/216
f 196/520/197 210/530/228 190/521/232
f 190/521/232 195/382/174 177/375/171
f 190/521/232 177/375/171 179/526/152
f 173/377/172 179/526/152 177/375/171
f 98/448/202 100/447/201 113/525/225
f 147/496/154 141/495/210 142/458/205
f 34/462/207 20/461/206 38/393/181
f 99/529/162 91/546/161 129/542/236
f 34/462/207 33/547/238 31/464/208
f 33/547/238 34/462/207 32/548/209
f 32/465/209 34/544/207 36/307/140
f 32/548/209 31/464/208 33/547/238
f 34/544/207 44/539/192 36/307/140
f 123/513/226 127/501/223 128/541/224
f 127/501/223 131/543/237 128/541/224
f 96/432/195 113/506/225 102/430/193
f 127/501/223 125/509/227 130/517/230
f 124/518/231 129/542/236 130/517/230
f 129/542/236 124/518/231 99/529/162
f 126/514/229 130/517/230 125/509/227
f 131/543/237 127/501/223 130/517/230
f 114/540/221 129/542/236 91/546/161
f 131/543/237 130/517/230 129/542/236
