# Blender 5.2.0 LTS
# www.blender.org
mtllib NIKU.mtl
o tripo_node_ab942b7c
v -0.401034 -0.000911 0.099935
v -0.033761 -0.001837 -0.239792
v 0.478392 -0.002167 -0.086991
v -0.444392 -0.002756 -0.114586
v 0.007168 -0.003318 -0.235034
v -0.014428 -0.003768 -0.179056
v -0.420788 -0.004513 0.144184
v 0.087006 -0.004663 0.033071
v 0.034318 -0.005978 -0.239216
v 0.502829 -0.007697 -0.029466
v -0.271477 -0.008453 0.226388
v 0.486530 -0.009914 0.016983
v 0.471480 -0.011872 -0.151423
v -0.484951 -0.012621 0.007055
v -0.473441 -0.014505 0.080281
v 0.428302 -0.019475 -0.056706
v 0.433627 -0.020479 -0.009304
v -0.349495 -0.020766 0.106550
v -0.404431 -0.020796 -0.028378
v 0.409300 -0.021244 0.152332
v -0.366463 -0.021097 0.044112
v -0.394516 -0.027088 0.023125
v -0.435728 -0.028476 -0.210450
v 0.417099 -0.030829 -0.161645
v 0.451705 -0.031469 -0.189228
v 0.422510 -0.031568 -0.198726
v -0.343145 -0.037767 -0.037900
v -0.199679 -0.038492 0.246276
v -0.017749 -0.040126 0.236100
v -0.326270 -0.040037 0.003815
v -0.275162 -0.041616 0.128541
v 0.372802 -0.044615 0.070604
v -0.375142 -0.044380 -0.074735
v -0.387776 -0.045343 -0.210131
v 0.381707 -0.047632 -0.141485
v -0.360402 -0.048825 -0.173377
v 0.374720 -0.050438 -0.007503
v 0.362168 -0.051286 0.227044
v 0.026341 -0.050935 -0.227202
v -0.183064 -0.051290 -0.038335
v -0.337171 -0.052432 -0.099430
v 0.061229 -0.053563 0.238478
v 0.381121 -0.052968 -0.232028
v 0.294402 -0.054020 0.234425
v 0.405962 -0.053794 -0.223229
v 0.349686 -0.058093 -0.020269
v 0.318575 -0.058824 0.118572
v -0.357399 -0.058559 -0.227393
v 0.389952 -0.060069 -0.173816
v -0.303153 -0.061247 -0.233079
v -0.263256 -0.065003 0.077343
v 0.367725 -0.065569 -0.089661
v -0.291615 -0.067787 -0.021631
v -0.298323 -0.068161 -0.150471
v -0.228007 -0.068642 0.106936
v -0.189502 -0.069003 0.152268
v -0.163187 -0.069607 0.236498
v -0.241438 -0.070778 0.004319
v 0.270990 -0.072332 -0.234850
v 0.079506 -0.072952 0.042742
v 0.144074 -0.073687 -0.227679
v 0.080999 -0.076864 0.042083
v -0.229041 -0.079417 -0.022856
v 0.081346 -0.080226 0.040412
v 0.334666 -0.080789 -0.021753
v 0.304509 -0.081131 -0.167461
v 0.267700 -0.082128 -0.113868
v -0.312049 -0.082080 -0.203968
v 0.236031 -0.084769 0.172210
v 0.298759 -0.085254 0.055147
v -0.299770 -0.085818 -0.118300
v 0.080163 -0.086281 0.040217
v 0.284640 -0.089006 -0.219130
v 0.246710 -0.089132 -0.226788
v -0.275981 -0.090042 -0.229128
v 0.085043 -0.090602 0.034182
v 0.247929 -0.090495 -0.139806
v -0.201180 -0.091986 -0.055044
v -0.108653 -0.092475 0.158056
v 0.215515 -0.094001 0.072036
v -0.193460 -0.094459 -0.022762
v -0.212451 -0.095980 -0.131749
v 0.204264 -0.096538 0.006747
v -0.109378 -0.096717 0.084494
v 0.237207 -0.096790 -0.186567
v -0.026184 -0.098375 0.162499
v 0.202758 -0.098205 -0.104160
v -0.204880 -0.098713 -0.140042
v -0.203171 -0.099118 -0.139936
v -0.204025 -0.099118 -0.140043
v -0.232805 -0.100199 -0.074434
v 0.276646 -0.100430 -0.063377
v 0.178816 -0.101816 0.231849
v 0.133514 -0.103051 0.145107
v -0.186386 -0.103367 0.079357
v 0.129008 -0.103635 0.094898
v -0.030089 -0.103784 0.085369
v 0.142940 -0.104270 -0.088482
v -0.139226 -0.104389 -0.084988
v -0.134546 -0.105283 -0.041877
v -0.239646 -0.105174 -0.151812
v 0.186316 -0.105989 -0.143969
v 0.043507 -0.107604 -0.234237
v 0.085429 -0.108196 -0.010686
v 0.108690 -0.109143 0.043743
v 0.123597 -0.110014 -0.105933
v 0.203857 -0.109917 -0.216724
v 0.130467 -0.110407 -0.173366
v -0.110677 -0.111170 -0.123468
v 0.048860 -0.111725 0.041769
v 0.211537 -0.111735 -0.050437
v 0.209257 -0.111817 -0.013309
v 0.119580 -0.111989 0.019647
v -0.048788 -0.112346 -0.047203
v -0.151752 -0.112031 -0.232325
v 0.069104 -0.112793 0.030961
v -0.230930 -0.112369 -0.232671
v -0.235200 -0.112547 -0.161994
v -0.040194 -0.113059 0.063711
v 0.001420 -0.112602 -0.199021
v 0.044315 -0.113260 -0.000747
v 0.134985 -0.112904 -0.218829
v 0.030500 -0.114168 0.228481
v 0.058791 -0.113614 -0.183523
v 0.140008 -0.114497 0.208211
v -0.003066 -0.114369 -0.237484
v 0.069978 -0.114846 -0.083580
v 0.123581 -0.115335 -0.048278
v -0.117828 -0.115675 0.017793
v 0.104303 -0.115427 -0.142013
v -0.057167 -0.115498 -0.158294
v 0.037911 -0.116439 -0.055517
v -0.078391 -0.119057 0.230346
v 0.078064 -0.121061 -0.035211
v -0.126209 -0.121107 -0.139925
v -0.034863 -0.122712 -0.011184
v 0.008080 -0.124366 -0.081089
v -0.031644 -0.128783 0.205177
v -0.487075 0.000245 -0.070418
v -0.102509 0.000674 -0.232977
v 0.101776 0.000325 -0.037889
v -0.100356 0.002061 -0.131596
v 0.058539 0.002222 -0.179420
v 0.137880 0.003057 -0.216369
v 0.089482 0.002949 -0.095085
v -0.154343 0.003782 -0.240782
v 0.053061 0.003521 0.003676
v -0.005424 0.003764 -0.092105
v -0.061417 0.003738 -0.047465
v -0.025071 0.003897 0.172133
v -0.452768 0.004487 -0.035602
v 0.027716 0.004606 0.055435
v -0.040942 0.006191 0.126504
v 0.481304 0.007135 0.081941
v -0.125318 0.008154 -0.077206
v 0.150718 0.007794 0.162201
v 0.156681 0.008533 -0.090840
v -0.122256 0.008920 -0.173485
v -0.367074 0.008704 0.220831
v 0.097915 0.009115 0.010332
v 0.066844 0.009320 -0.041281
v 0.181591 0.010056 0.090670
v 0.472363 0.010135 0.175198
v 0.188147 0.011045 -0.218538
v 0.116053 0.010731 0.039865
v 0.173085 0.011534 -0.134731
v -0.104439 0.011580 0.076290
v 0.493237 0.012214 0.097885
v -0.175925 0.013209 -0.191495
v -0.487927 0.014161 -0.145386
v -0.220034 0.015012 -0.229787
v 0.204990 0.017121 0.007720
v -0.182326 0.018385 -0.117877
v 0.167848 0.018612 0.230701
v 0.393545 0.018780 0.235258
v 0.202196 0.019104 0.058212
v 0.215071 0.019594 -0.157947
v 0.185196 0.019388 0.194875
v 0.232333 0.020180 -0.216443
v 0.186035 0.019506 0.194875
v 0.185196 0.019561 0.195730
v -0.003147 0.019750 0.223050
v 0.203070 0.020259 -0.042722
v -0.183165 0.021351 -0.040986
v -0.426655 0.023694 -0.221390
v 0.451336 0.023878 -0.188534
v -0.110045 0.024209 0.225471
v -0.143204 0.024748 0.019288
v -0.231940 0.025065 -0.114811
v 0.118585 0.026404 0.213485
v 0.263090 0.027501 -0.105380
v -0.150415 0.030342 0.160979
v 0.301785 0.036299 -0.228101
v -0.290432 0.037186 -0.156826
v 0.289789 0.037747 0.171252
v 0.306445 0.040179 -0.159990
v -0.303667 0.040383 -0.209064
v -0.231243 0.041930 -0.017086
v -0.414247 0.042273 0.152497
v 0.302031 0.043299 0.120853
v 0.301142 0.043423 0.069022
v -0.210869 0.043925 0.099380
v 0.299681 0.044255 -0.010153
v 0.320610 0.045645 0.238099
v -0.267965 0.048056 -0.069543
v -0.280670 0.053508 0.230719
v -0.280670 0.054359 0.230614
v -0.279816 0.054359 0.230720
v 0.366608 0.063007 -0.119308
v 0.366608 0.063510 -0.118995
v 0.367462 0.063510 -0.119308
v -0.335640 0.065330 -0.097403
v -0.261445 0.065312 0.092744
v -0.208853 0.066037 0.234820
v -0.367422 0.068596 -0.176371
v 0.344281 0.069408 0.227405
v -0.471719 0.070212 0.102552
v 0.378376 0.071003 -0.039821
v 0.402444 0.072069 -0.230219
v -0.315289 0.073882 0.001201
v -0.392491 0.076224 -0.224017
v -0.367554 0.083689 -0.068169
v -0.367554 0.083863 -0.067321
v -0.368408 0.084222 -0.067321
v -0.480479 0.088152 -0.170942
v 0.423692 0.088509 -0.209220
v 0.492081 0.088256 -0.067093
v -0.383700 0.089398 -0.025050
v -0.295057 0.089137 0.151876
v -0.405447 0.090971 -0.129783
v -0.499209 0.090842 0.007652
v 0.449853 0.094944 0.177886
v 0.453370 0.098103 -0.140566
v -0.376451 0.098737 0.098661
v -0.450762 0.099864 -0.211113
v 0.453487 0.104695 -0.118107
v -0.414926 0.105652 0.029567
v -0.364689 0.108514 0.211799
v 0.463075 0.109660 0.105509
v 0.465700 0.110176 0.035396
v 0.458552 0.111065 -0.081344
v -0.407353 0.114564 0.137063
v -0.479428 0.115105 -0.071661
v -0.452565 0.118922 0.083343
v -0.468934 0.120810 -0.005998
vn -0.9446 0.3175 0.0838
vn -0.6785 -0.7343 -0.0204
vn -0.5770 -0.7668 0.2811
vn -0.8208 0.1718 0.5448
vn -0.3624 0.8962 0.2560
vn -0.2190 0.9757 -0.0054
vn -0.7526 -0.6552 -0.0659
vn -0.5431 0.8303 -0.1249
vn 0.2971 0.9452 -0.1350
vn 0.3338 0.9396 -0.0756
vn 0.2871 0.9475 -0.1407
vn -0.5104 -0.6660 -0.5440
vn -0.8857 -0.4286 -0.1783
vn -0.8776 0.3368 -0.3410
vn -0.3441 -0.9388 0.0139
vn -0.2503 -0.9643 -0.0865
vn -0.2410 -0.9704 -0.0128
vn -0.5589 -0.6934 0.4548
vn -0.1368 -0.9905 0.0131
vn -0.1492 -0.9772 0.1507
vn -0.4629 -0.8305 0.3099
vn -0.3493 -0.9297 0.1168
vn -0.3256 0.6773 -0.6598
vn 0.3019 0.9409 -0.1538
vn 0.2847 0.9575 -0.0457
vn 0.2107 0.6084 -0.7652
vn -0.2535 -0.0807 -0.9640
vn -0.4342 -0.8985 0.0645
vn -0.5365 -0.8141 0.2222
vn 0.2947 0.9449 -0.1424
vn 0.3577 0.9226 -0.1442
vn -0.3353 -0.9415 0.0354
vn -0.3079 0.8939 0.3257
vn -0.7473 0.0758 0.6602
vn -0.3170 -0.9011 0.2960
vn 0.2703 0.9541 -0.1289
vn 0.2955 0.9434 -0.1508
vn -0.4595 -0.7737 -0.4363
vn -0.3832 -0.9170 0.1107
vn -0.2202 -0.9487 0.2269
vn 0.3957 0.9142 -0.0876
vn 0.2409 0.7094 -0.6623
vn 0.3264 0.9320 -0.1573
vn -0.3045 0.7251 0.6176
vn -0.4542 -0.4452 0.7717
vn -0.1816 -0.6511 -0.7370
vn 0.2940 0.9229 0.2486
vn 0.3387 0.9388 0.0630
vn -0.2656 -0.5486 0.7928
vn 0.3841 0.9084 -0.1648
vn 0.3692 0.9019 -0.2242
vn 0.6175 -0.3331 -0.7126
vn -0.2778 -0.9531 -0.1201
vn -0.5700 -0.8010 -0.1832
vn -0.1981 -0.9576 0.2094
vn -0.4548 -0.5465 0.7032
vn -0.2704 -0.5509 -0.7895
vn -0.2698 -0.9281 0.2566
vn -0.3704 -0.9288 -0.0121
vn -0.4565 -0.0341 -0.8891
vn -0.2975 -0.8732 0.3861
vn -0.1860 -0.9739 0.1302
vn -0.3461 -0.9362 0.0608
vn -0.3789 -0.9144 0.1423
vn -0.1544 -0.9707 0.1841
vn 0.2247 0.9700 -0.0924
vn 0.2267 0.7197 0.6562
vn 0.1526 0.9882 0.0106
vn 0.1074 0.9903 -0.0884
vn 0.0095 0.6451 -0.7640
vn 0.0453 0.5781 -0.8147
vn 0.1404 0.9873 -0.0738
vn -0.1296 0.0867 0.9878
vn -0.0936 0.1305 0.9870
vn -0.1229 0.0336 0.9918
vn 0.0216 -0.8169 0.5764
vn -0.2484 -0.4439 0.8610
vn 0.2008 0.9503 -0.2381
vn -0.2071 -0.6891 -0.6945
vn -0.0059 -0.6819 -0.7315
vn -0.0285 -0.9580 0.2852
vn -0.3443 -0.9248 0.1618
vn -0.3288 -0.8744 0.3567
vn -0.2468 -0.9221 0.2981
vn 0.2153 0.9760 -0.0335
vn 0.2915 0.9535 -0.0769
vn 0.2279 0.7252 0.6497
vn 0.1846 0.9828 -0.0089
vn -0.1491 -0.9888 -0.0037
vn -0.1979 -0.9800 0.0193
vn -0.1272 -0.9909 0.0446
vn -0.3627 -0.8102 -0.4605
vn -0.2819 -0.8440 0.4563
vn -0.1266 -0.8587 0.4967
vn -0.9994 -0.0234 0.0236
vn -0.0567 -0.9727 0.2248
vn 0.0686 0.9949 -0.0740
vn -0.3130 -0.5786 0.7531
vn -0.0139 -0.9994 -0.0305
vn -0.0464 -0.8718 0.4877
vn 0.0549 0.9916 -0.1173
vn 0.0018 -0.9946 0.1037
vn 0.0039 -0.9614 0.2751
vn -0.0731 -0.8265 0.5582
vn -0.2027 -0.9625 -0.1805
vn -0.1996 -0.9779 -0.0615
vn -0.0245 -0.9764 0.2146
vn 0.0494 0.6697 -0.7410
vn 0.1030 0.9925 -0.0661
vn 0.0292 -0.9938 -0.1073
vn -0.0807 -0.9963 -0.0284
vn 0.1470 0.9841 0.1001
vn -0.0306 -0.9836 -0.1778
vn 0.0365 0.6672 -0.7440
vn 0.0915 -0.7011 -0.7072
vn 0.0041 0.9997 -0.0247
vn 0.0989 0.9951 -0.0079
vn 0.0177 0.9991 -0.0395
vn -0.0164 0.0290 0.9994
vn -0.0115 -0.9965 0.0825
vn 0.0287 0.9996 0.0009
vn -0.0004 0.8534 0.5213
vn -0.0042 -0.9967 0.0807
vn -0.0153 0.9998 -0.0093
vn 0.0343 -0.9979 0.0558
vn 0.0983 0.7288 -0.6776
vn 0.0484 -0.9981 -0.0379
vn 0.0757 -0.9875 0.1382
vn 0.0857 -0.9660 0.2437
vn 0.0384 -0.9928 -0.1130
vn -0.0029 -0.7917 0.6108
vn 0.0730 -0.9881 0.1357
vn -0.1364 -0.9884 -0.0671
vn 0.1574 -0.9734 0.1665
vn 0.0655 -0.9889 -0.1331
vn 0.1039 -0.9945 0.0109
vn 0.0449 -0.6473 -0.7609
vn -0.1580 -0.0543 -0.9859
vn -0.0779 0.5846 -0.8076
vn 0.1175 -0.0538 -0.9916
vn -0.0323 0.7611 -0.6478
vn 0.1388 0.0020 0.9903
vn -0.0013 0.8937 0.4487
vn -0.1483 0.9884 0.0311
vn -0.0622 0.9979 -0.0203
vn -0.0776 0.9915 -0.1047
vn -0.0448 0.9971 -0.0608
vn -0.0484 0.9965 -0.0683
vn -0.1589 0.9863 0.0450
vn -0.1522 0.9882 0.0169
vn 0.0841 -0.9965 -0.0013
vn 0.1234 -0.9923 -0.0145
vn 0.1566 -0.9866 0.0466
vn 0.1284 -0.9903 -0.0537
vn 0.0065 0.9996 0.0265
vn -0.1275 0.9918 -0.0099
vn 0.0518 -0.9986 0.0047
vn 0.2500 -0.9663 -0.0612
vn 0.6500 -0.7593 0.0315
vn -0.9921 -0.0652 -0.1067
vn 0.3963 -0.8207 0.4116
vn 0.0540 -0.8242 -0.5638
vn -0.1781 -0.9807 0.0812
vn -0.0185 -0.6694 0.7427
vn 0.2810 0.8970 0.3411
vn -0.1861 0.9812 0.0507
vn -0.1162 0.9108 0.3961
vn 0.1743 -0.9620 -0.2103
vn 0.0353 -0.9959 -0.0835
vn 0.3705 0.9255 0.0793
vn -0.7979 -0.0987 -0.5947
vn -0.1068 -0.9786 0.1758
vn 0.2072 -0.9183 0.3373
vn -0.1557 0.9877 -0.0135
vn -0.1920 0.9749 -0.1126
vn 0.1520 -0.9847 0.0852
vn -0.1938 0.6642 0.7220
vn -0.2215 0.5077 0.8326
vn -0.2953 0.9554 -0.0046
vn 0.1796 -0.9347 0.3066
vn -0.0648 0.5174 -0.8533
vn 0.1675 -0.7787 -0.6047
vn -0.1965 0.9579 -0.2094
vn -0.2814 0.9474 -0.1523
vn -0.1887 0.9678 -0.1668
vn -0.3192 0.9476 0.0097
vn -0.3155 0.9489 0.0040
vn -0.2283 0.7043 -0.6722
vn 0.1475 -0.9860 -0.0778
vn 0.2324 -0.9672 0.1029
vn 0.2485 -0.9682 0.0295
vn 0.2660 -0.9543 0.1361
vn 0.2283 -0.9663 -0.1186
vn 0.1885 -0.9022 -0.3879
vn -0.2926 0.9562 0.0033
vn -0.2088 0.9778 -0.0185
vn -0.2608 0.9651 -0.0240
vn 0.1144 -0.9877 -0.1068
vn -0.0479 -0.5967 -0.8011
vn 0.2161 -0.9711 -0.1013
vn 0.0616 -0.1655 0.9843
vn 0.4035 -0.7225 0.5614
vn 0.3235 -0.9435 0.0718
vn -0.0563 -0.2476 -0.9672
vn 0.2745 -0.9230 0.2697
vn -0.2278 0.6571 -0.7185
vn 0.3613 -0.7238 0.5878
vn -0.3354 0.9394 -0.0702
vn 0.3669 -0.9275 -0.0710
vn 0.4057 0.8884 -0.2150
vn -0.3417 0.9378 0.0614
vn -0.1947 0.7962 0.5728
vn 0.3952 -0.9148 -0.0832
vn 0.4298 -0.8995 -0.0792
vn 0.2128 -0.5546 -0.8044
vn 0.3885 -0.9069 0.1631
vn 0.4426 -0.7762 0.4490
vn 0.4524 0.8845 0.1144
vn 0.0968 0.5545 -0.8265
vn 0.8377 0.3973 -0.3748
vn 0.8351 -0.5474 -0.0551
vn 0.8181 -0.5306 -0.2219
vn 0.2419 0.9323 -0.2691
vn 0.4938 0.7117 0.4996
vn 0.3558 0.0134 0.9345
vn 0.8207 -0.3634 0.4409
vn 0.7900 0.0599 -0.6102
vn 0.8806 -0.4558 -0.1293
vn 0.6412 -0.6133 -0.4612
vn 0.5228 0.8129 -0.2567
vn 0.3511 -0.8479 0.3973
vn 0.5629 -0.6412 -0.5216
vn 0.5140 -0.8452 0.1464
vn 0.4335 0.8994 0.0561
vn 0.7731 -0.6323 -0.0505
vn 0.4016 -0.9156 -0.0187
vn 0.3116 0.7901 -0.5278
vn 0.4018 -0.9120 0.0826
vn -0.3516 0.9079 -0.2282
vn -0.3570 0.6670 -0.6540
vn -0.3095 0.6141 -0.7260
vn 0.9188 -0.3913 -0.0511
vn 0.3937 -0.8862 0.2440
vn 0.6241 -0.4371 -0.6476
vn 0.3426 -0.9122 -0.2246
vt 0.178857 0.819151
vt 0.254205 0.842797
vt 0.239701 0.897223
vt 0.173506 0.895661
vt 0.136357 0.875665
vt 0.153234 0.796977
vt 0.262581 0.783694
vt 0.180609 0.754379
vt 0.249282 0.651475
vt 0.164695 0.651550
vt 0.235202 0.571063
vt 0.901835 0.256680
vt 0.975215 0.262228
vt 0.994311 0.371124
vt 0.072986 0.506891
vt 0.153276 0.481335
vt 0.155030 0.556447
vt 0.137429 0.430986
vt 0.205265 0.447499
vt 0.198831 0.381291
vt 0.227970 0.411438
vt 0.257608 0.957989
vt 0.284851 0.933227
vt 0.284946 0.813431
vt 0.320532 0.835068
vt 0.314531 0.879038
vt 0.137045 0.099743
vt 0.150196 0.164650
vt 0.108360 0.184265
vt 0.122149 0.585635
vt 0.097832 0.753717
vt 0.041413 0.749103
vt 0.109985 0.822598
vt 0.061908 0.605145
vt 0.075155 0.546739
vt 0.023801 0.391580
vt 0.074191 0.376533
vt 0.950100 0.369335
vt 0.907935 0.339208
vt 0.423222 0.126525
vt 0.587015 0.127180
vt 0.514024 0.150989
vt 0.319749 0.956797
vt 0.115902 0.925008
vt 0.199489 0.951482
vt 0.985911 0.408856
vt 0.962522 0.509795
vt 0.954500 0.453962
vt 0.082744 0.904127
vt 0.036126 0.961719
vt 0.030646 0.495055
vt 0.019361 0.459500
vt 0.062654 0.142958
vt 0.001599 0.107761
vt 0.084782 0.113879
vt 0.934631 0.600551
vt 0.918373 0.660679
vt 0.890629 0.680213
vt 0.083768 0.656328
vt 0.008701 0.636240
vt 0.005886 0.675491
vt 0.861059 0.206336
vt 0.871833 0.285189
vt 0.816927 0.232955
vt 0.804789 0.294165
vt 0.000000 0.507525
vt 0.953296 0.591712
vt 0.953296 0.509457
vt 0.961017 0.628851
vt 0.133214 0.708152
vt 0.747211 0.332390
vt 0.874256 0.322318
vt 0.783673 0.394712
vt 0.879036 0.637294
vt 0.000109 0.165044
vt 0.001120 0.892348
vt 0.173993 0.709123
vt 0.912463 0.306594
vt 0.911983 0.306947
vt 0.912129 0.306049
vt 0.174769 0.709339
vt 0.773694 0.195695
vt 0.516367 0.414584
vt 0.480216 0.392742
vt 0.553216 0.376428
vt 0.511602 0.363009
vt 0.596519 0.320193
vt 0.569747 0.322530
vt 0.528937 0.316175
vt 0.563660 0.314261
vt 0.579492 0.386665
vt 0.425765 0.323840
vt 0.505074 0.335319
vt 0.954874 0.829647
vt 0.991214 0.879940
vt 0.954519 0.883315
vt 0.885205 0.722619
vt 0.936855 0.686508
vt 0.138681 0.227269
vt 0.134224 0.292692
vt 0.106345 0.277195
vt 0.040413 0.261368
vt 0.924262 0.766763
vt 0.850389 0.350315
vt 0.938475 0.410776
vt 0.891718 0.392308
vt 0.994565 0.562100
vt 0.697986 0.255614
vt 0.955008 0.384526
vt 0.376275 0.216488
vt 0.432831 0.222171
vt 0.455259 0.261212
vt 0.388596 0.305459
vt 0.677938 0.530495
vt 0.677938 0.487057
vt 0.722204 0.517126
vt 0.366172 0.253825
vt 0.599533 0.001345
vt 0.563010 0.108579
vt 0.556651 0.021451
vt 0.756381 0.259339
vt 0.755779 0.259324
vt 0.755781 0.260248
vt 0.255702 0.127250
vt 0.261157 0.097191
vt 0.326132 0.135120
vt 0.340074 0.516482
vt 0.335764 0.466951
vt 0.395418 0.492846
vt 0.999560 0.410543
vt 0.550715 0.284039
vt 0.559422 0.223584
vt 0.646193 0.291523
vt 0.278214 0.531495
vt 0.275007 0.474017
vt 0.947227 0.700054
vt 0.988927 0.720372
vt 0.949191 0.767987
vt 0.963334 0.806375
vt 0.297392 0.082668
vt 0.242811 0.530524
vt 0.254335 0.504402
vt 0.453546 0.242367
vt 0.225652 0.480210
vt 0.488289 0.508596
vt 0.520138 0.424763
vt 0.551844 0.475487
vt 0.601941 0.072665
vt 0.478305 0.475866
vt 0.454844 0.539093
vt 0.434513 0.444472
vt 0.391130 0.426323
vt 0.481359 0.405616
vt 0.660667 0.224563
vt 0.700014 0.156834
vt 0.745373 0.135653
vt 0.689231 0.207582
vt 0.279903 0.067367
vt 0.210815 0.075825
vt 0.717783 0.860190
vt 0.766092 0.779347
vt 0.781470 0.820175
vt 0.767215 0.851284
vt 0.215627 0.145504
vt 0.715195 0.402629
vt 0.202752 0.180528
vt 0.202140 0.161675
vt 0.201355 0.162289
vt 0.201030 0.162286
vt 0.180017 0.164772
vt 0.158355 0.094141
vt 0.167869 0.073743
vt 0.305737 0.061620
vt 0.320821 0.092222
vt 0.877354 0.440757
vt 0.817988 0.522142
vt 0.850928 0.460062
vt 0.318905 0.441844
vt 0.673541 0.316739
vt 0.729225 0.327363
vt 0.219996 0.435889
vt 0.414477 0.367475
vt 0.544523 0.057789
vt 0.723495 0.308572
vt 0.753720 0.960756
vt 0.697107 0.949845
vt 0.765130 0.926052
vt 0.657271 0.173060
vt 0.638789 0.220732
vt 0.293796 0.386451
vt 0.259374 0.424208
vt 0.222359 0.049250
vt 0.613958 0.128495
vt 0.626105 0.217998
vt 0.587101 0.169729
vt 0.746959 0.880865
vt 0.786714 0.869668
vt 0.637906 0.475944
vt 0.633260 0.526004
vt 0.658955 0.586225
vt 0.690875 0.902661
vt 0.710645 0.913907
vt 0.817884 0.481803
vt 0.604188 0.597520
vt 0.602779 0.549705
vt 0.578094 0.219020
vt 0.873283 0.495893
vt 0.542084 0.169697
vt 0.590281 0.448942
vt 0.607666 0.354557
vt 0.764343 0.898422
vt 0.783713 0.481737
vt 0.781604 0.540436
vt 0.443829 0.372485
vt 0.738677 0.514969
vt 0.556658 0.486739
vt 0.346097 0.354158
vt 0.547608 0.197949
vt 0.499004 0.185353
vt 0.414126 0.214560
vt 0.370485 0.196831
vt 0.386555 0.141491
vt 0.408251 0.362359
vt 0.782080 0.597726
vt 0.807558 0.549630
vt 0.809924 0.587172
vt 0.666939 0.866738
vt 0.893095 0.530680
vt 0.849608 0.593480
vt 0.816864 0.593750
vt 0.653489 0.929060
vt 0.562027 0.430471
vt 0.617729 0.325439
vt 0.742527 0.999962
vt 0.744987 0.584854
vt 0.757999 0.617320
vt 0.739209 0.613717
vt 0.334609 0.536353
vt 0.327019 0.584954
vt 0.238212 0.552453
vt 0.527777 0.219401
vt 0.718787 0.574614
vt 0.704320 0.528744
vt 0.642511 0.276782
vt 0.865839 0.200583
vt 0.892201 0.104167
vt 0.901715 0.173958
vt 0.800100 0.190568
vt 0.812326 0.139473
vt 0.801411 0.110783
vt 0.367454 0.567812
vt 0.365624 0.528809
vt 0.456094 0.544614
vt 0.415680 0.558616
vt 0.451311 0.574225
vt 0.396514 0.650835
vt 0.460567 0.651910
vt 0.801144 0.921307
vt 0.768315 0.940365
vt 0.777273 0.899153
vt 0.867568 0.029220
vt 0.773402 0.103417
vt 0.821058 0.003297
vt 0.784806 0.965317
vt 0.840370 0.949163
vt 0.362446 0.109604
vt 0.366613 0.140880
vt 0.330728 0.157705
vt 0.343566 0.115399
vt 0.501241 0.534345
vt 0.960396 0.059021
vt 1.000000 0.059377
vt 1.000000 0.173952
vt 0.927229 0.060914
vt 0.573006 0.542544
vt 0.500724 0.594942
vt 0.565944 0.630554
vt 0.962621 0.212491
vt 0.331544 0.095614
vt 0.899969 0.123426
vt 0.192339 0.200505
vt 0.263770 0.133659
vt 0.244534 0.181403
vt 0.791662 0.623482
vt 0.819961 0.656184
vt 0.791513 0.661494
vt 0.772788 0.670277
vt 0.870781 0.381896
vt 0.827260 0.451892
vt 0.803151 0.432261
vt 0.771218 0.410730
vt 0.736288 0.438846
vt 0.824069 0.377800
vt 0.297119 0.626161
vt 0.325492 0.644913
vt 0.812344 0.846649
vt 0.863187 0.844351
vt 0.761011 0.012414
vt 0.381867 0.128956
vt 0.382214 0.123856
vt 0.396168 0.139999
vt 0.720788 0.589417
vt 0.363156 0.644600
vt 0.825748 0.878428
vt 0.847863 0.881407
vt 0.785329 0.449787
vt 0.285435 0.144948
vt 0.243759 0.202942
vt 0.302255 0.171448
vt 0.228229 0.194290
vt 0.412323 0.129328
vt 0.384073 0.115798
vt 0.863198 0.968652
vt 0.806838 0.473873
vt 0.751720 0.647309
vt 0.382404 0.119725
vt 0.387904 0.113629
vt 0.390049 0.112308
vt 0.394402 0.111307
vt 0.397427 0.106900
vt 0.887628 0.197394
vt 0.894491 0.204443
vt 0.709156 0.601710
vt 0.713459 0.629450
vt 0.893045 0.201203
vt 0.894393 0.202727
vt 0.877403 0.222991
vt 0.896667 0.209977
vt 0.897055 0.216815
vt 0.966030 0.701063
vt 0.959476 0.647397
vt 0.981050 0.707759
vt 0.999958 0.641131
vt 0.559556 0.686108
vt 0.521552 0.693193
vt 0.725870 0.482278
vt 0.307141 0.693951
vt 0.269639 0.646249
vt 0.860808 0.934766
vt 0.930684 0.911980
vt 0.925211 0.941963
vt 0.709323 0.697686
vt 0.549967 0.893899
vt 0.459632 0.863655
vt 0.494259 0.832816
vt 0.367366 0.701530
vt 0.462800 0.694017
vt 0.874501 0.948026
vt 0.874005 0.947758
vt 0.874121 0.948156
vt 0.939021 0.962511
vt 0.888131 0.995955
vt 0.221165 0.229698
vt 0.194795 0.246726
vt 0.150145 0.196633
vt 0.414436 0.136830
vt 0.414436 0.196749
vt 0.401039 0.149920
vt 0.580943 0.867477
vt 0.537986 0.919128
vt 0.611186 0.918997
vt 0.764218 0.714436
vt 0.792166 0.712609
vt 0.399671 0.879460
vt 0.412780 0.841671
vt 0.434465 0.884438
vt 0.404208 0.924468
vt 0.376975 0.887289
vt 0.445224 0.925527
vt 0.316848 0.203130
vt 0.362390 0.156911
vt 0.582179 0.933795
vt 0.614544 0.975060
vt 0.731845 0.708112
vt 0.460992 0.902107
vt 0.673884 0.127274
vt 0.683664 0.084679
vt 0.727075 0.136542
vt 0.904640 0.864652
vt 0.943646 0.646148
vt 0.644035 0.920775
vt 0.649295 0.036290
vt 0.748610 0.065162
vt 0.736858 0.092592
vt 0.739635 0.107546
vt 0.992066 0.863003
vt 0.961116 0.825915
vt 0.990328 0.769700
vt 0.047051 0.103646
vt 0.011684 0.043447
vt 0.041745 0.042661
vt 0.382803 0.841559
vt 0.821427 0.103501
vt 0.846520 0.055211
vt 0.907330 0.089103
vt 0.000019 0.102099
vt 0.465301 0.925075
vt 0.996372 0.415108
vt 0.996372 0.537000
vt 0.974903 0.485433
vt 0.683520 0.152513
vt 0.990610 0.588927
vt 0.524375 0.977619
vt 0.930139 0.844770
vt 0.569777 0.999168
vt 0.527876 0.789159
vt 0.576194 0.838698
vt 0.478715 0.825110
vt 0.171518 0.342808
vt 0.016854 0.299854
vt 0.090583 0.299826
vt 0.914644 0.006423
vt 0.756189 0.045984
vt 0.356567 0.194920
vt 0.359884 0.234210
vt 0.298798 0.218448
vt 0.293930 0.239955
vt 0.252313 0.208309
vt 0.576523 0.119896
vt 0.603026 0.083090
vt 0.437952 1.000000
vt 0.862586 0.657339
vt 0.872682 0.705088
vt 0.825652 0.657538
vt 0.351302 0.929678
vt 0.637373 0.017980
vt 0.220125 0.737122
vt 0.244897 0.695861
vt 0.265044 0.762108
vt 0.255056 0.340354
vt 0.627341 0.611973
vt 0.678635 0.586818
vt 0.671441 0.689906
vt 0.565569 0.690697
vt 0.622248 0.000216
vt 0.328022 0.818290
vt 0.395269 0.807772
vt 0.370147 0.837709
vt 0.251899 0.347931
vt 0.169153 0.310413
vt 0.199438 0.294379
vt 0.297565 0.302835
vt 0.329197 0.258825
vt 0.348208 0.321167
vt 0.000089 0.390198
vt 0.677442 0.757035
vt 0.681930 0.803245
vt 0.643999 0.789083
vt 0.265157 0.388088
vt 0.178454 0.363545
vt 0.391947 0.991648
vt 0.568642 0.712607
vt 0.525611 0.720068
vt 0.481265 0.763072
vt 0.416311 0.785902
vt 0.300952 0.814920
vt 0.340996 0.747662
vt 0.817096 0.720613
vt 0.894348 0.768854
vt 0.850067 0.783222
vt 0.836448 0.819999
vt 0.780757 0.795734
vt 0.750195 0.719534
vt 0.419181 0.120419
vt 0.536681 0.066902
vt 0.561256 0.121351
vt 0.698464 0.530785
vt 0.698341 0.699246
vt 0.748578 0.737363
vt 0.077816 0.102926
vt 0.056455 0.106713
vt 0.127127 0.045447
vt 0.344148 0.832834
vt 0.335653 0.909148
vt 0.335503 0.908368
vt 0.462505 0.074813
vt 0.426335 0.015326
vt 0.460160 0.073930
vt 0.335197 0.909028
vt 0.325521 0.832708
vt 0.859952 0.831968
vt 0.452163 0.714747
vt 0.637529 0.825649
vt 0.621652 0.859001
vt 0.720365 0.842311
vt 0.417109 0.739657
vt 0.059128 0.000000
vt 0.154442 0.005058
vt 0.061117 0.045241
vt 0.626307 0.770446
vt 0.440122 0.811878
vt 0.351827 0.705477
vt 0.100994 0.102995
vt 0.436323 0.836186
vt 0.409971 0.723724
vt 0.432885 0.685923
vt 0.319998 0.361244
vt 0.190699 0.039579
s 1
usemtl tripo_mat_ab942b7c.008
f 231/1/1 14/2/2 15/3/3
f 217/4/4 231/1/1 15/3/3
f 244/5/5 245/6/6 231/1/1
f 14/2/2 231/1/1 139/7/7
f 231/1/1 245/6/6 243/8/8
f 228/9/9 230/10/10 243/11/8
f 230/12/10 228/13/9 198/14/11
f 23/15/12 170/16/13 225/17/14
f 4/18/15 139/19/7 170/16/13
f 139/19/7 4/18/15 19/20/16
f 151/21/17 139/19/7 19/20/16
f 139/7/7 231/1/1 243/8/8
f 170/16/13 23/15/12 4/18/15
f 139/19/7 243/11/8 170/16/13
f 170/16/13 243/11/8 225/17/14
f 7/22/18 15/3/3 1/23/19
f 14/2/2 139/7/7 151/24/17
f 231/1/1 217/4/4 244/5/5
f 19/25/16 22/26/20 14/2/2
f 19/27/16 27/28/21 30/29/22
f 235/30/23 225/17/14 243/11/8
f 14/2/2 1/23/19 15/3/3
f 19/25/16 14/2/2 151/24/17
f 228/31/9 245/6/6 220/32/24
f 220/32/24 245/6/6 237/33/25
f 243/8/8 245/6/6 228/31/9
f 15/3/3 7/22/18 217/4/4
f 235/30/23 243/11/8 230/10/10
f 221/34/26 235/30/23 230/10/10
f 221/34/26 185/35/27 235/30/23
f 235/30/23 185/35/27 23/15/12
f 23/15/12 225/17/14 235/30/23
f 4/18/15 41/36/28 33/37/29
f 205/38/30 212/39/31 198/14/11
f 198/40/11 228/41/9 220/42/24
f 245/6/6 244/5/5 237/33/25
f 1/23/19 18/43/32 7/22/18
f 242/44/33 217/4/4 199/45/34
f 244/5/5 217/4/4 242/44/33
f 217/4/4 7/22/18 199/45/34
f 31/46/35 7/47/18 18/48/32
f 242/44/33 234/49/36 244/5/5
f 229/50/37 234/49/36 242/44/33
f 4/18/15 23/15/12 34/51/38
f 41/36/28 4/18/15 36/52/39
f 4/18/15 34/51/38 36/52/39
f 1/23/19 14/2/2 22/26/20
f 21/53/40 1/54/19 22/55/20
f 4/56/15 33/57/29 27/58/21
f 221/34/26 230/10/10 215/59/41
f 197/60/42 215/59/41 194/61/43
f 197/60/42 221/34/26 215/59/41
f 242/62/33 199/63/34 238/64/44
f 199/63/34 159/65/45 238/64/44
f 23/15/12 185/35/27 34/51/38
f 34/51/38 221/34/26 48/66/46
f 22/55/20 19/27/16 30/29/22
f 213/67/47 234/68/36 202/69/48
f 34/51/38 185/35/27 221/34/26
f 230/10/10 212/70/31 215/59/41
f 11/71/49 7/72/18 31/73/35
f 199/63/34 7/72/18 159/65/45
f 27/58/21 19/74/16 4/56/15
f 244/5/5 234/49/36 237/33/25
f 221/34/26 197/60/42 48/66/46
f 1/54/19 21/53/40 18/75/32
f 21/53/40 22/55/20 30/29/22
f 213/76/47 237/33/25 234/49/36
f 222/77/50 212/70/31 230/10/10
f 198/14/11 212/39/31 223/78/51
f 212/39/31 222/79/50 223/78/51
f 230/12/10 198/14/11 224/80/52
f 230/10/10 224/81/52 222/77/50
f 224/80/52 198/14/11 223/78/51
f 224/80/52 223/78/51 222/79/50
f 36/52/39 34/51/38 48/66/46
f 159/65/45 7/72/18 11/71/49
f 229/82/37 242/62/33 238/64/44
f 36/83/39 48/84/46 54/85/53
f 48/84/46 68/86/54 54/85/53
f 82/87/55 54/85/53 68/86/54
f 68/86/54 101/88/56 82/87/55
f 68/86/54 75/89/57 118/90/58
f 101/88/56 68/86/54 118/90/58
f 36/83/39 54/85/53 71/91/59
f 197/92/42 75/89/57 50/93/60
f 36/94/39 71/95/59 41/96/28
f 33/57/29 53/97/61 27/58/21
f 53/97/61 33/57/29 41/98/28
f 30/29/22 27/28/21 53/99/61
f 30/29/22 63/100/62 58/101/63
f 30/29/22 51/102/64 21/53/40
f 91/103/65 53/97/61 41/98/28
f 215/104/41 212/39/31 189/105/66
f 194/106/43 215/104/41 189/105/66
f 21/53/40 51/102/64 18/75/32
f 197/92/42 68/86/54 48/84/46
f 229/107/37 202/69/48 234/68/36
f 159/65/45 11/71/49 214/108/67
f 18/48/32 51/109/64 31/46/35
f 173/110/68 169/111/69 171/112/70
f 197/92/42 194/113/43 173/110/68
f 220/32/24 237/33/25 213/76/47
f 197/92/42 50/93/60 68/86/54
f 171/112/70 197/92/42 173/110/68
f 169/114/69 146/115/71 171/116/70
f 30/29/22 58/101/63 51/102/64
f 68/86/54 50/93/60 75/89/57
f 194/113/43 189/117/66 173/110/68
f 205/118/30 155/119/72 189/120/66
f 207/121/73 238/64/44 159/65/45
f 207/121/73 159/65/45 208/122/74
f 208/122/74 159/65/45 206/123/75
f 206/123/75 159/65/45 214/108/67
f 208/122/74 206/123/75 214/108/67
f 207/121/73 208/122/74 238/64/44
f 208/122/74 214/108/67 238/64/44
f 189/105/66 212/39/31 205/38/30
f 91/124/65 78/125/76 53/126/61
f 30/29/22 53/99/61 63/100/62
f 11/127/49 28/128/77 214/129/67
f 184/130/78 205/38/30 198/14/11
f 117/131/79 115/132/80 135/133/81
f 11/127/49 31/134/35 56/135/82
f 54/85/53 82/87/55 71/91/59
f 82/136/55 91/137/65 71/138/59
f 214/108/67 229/82/37 238/64/44
f 41/139/28 71/138/59 91/137/65
f 78/125/76 63/140/62 53/126/61
f 51/141/64 55/142/83 31/134/35
f 31/134/35 55/142/83 56/135/82
f 198/40/11 220/42/24 213/143/47
f 197/92/42 117/131/79 75/89/57
f 117/131/79 197/92/42 171/112/70
f 28/128/77 11/127/49 56/135/82
f 95/144/84 55/142/83 51/141/64
f 213/145/47 188/146/85 198/147/11
f 117/131/79 118/90/58 75/89/57
f 118/90/58 117/131/79 135/133/81
f 184/148/78 155/119/72 205/118/30
f 202/149/48 229/150/37 192/151/86
f 214/129/67 187/152/87 192/151/86
f 213/145/47 202/149/48 167/153/88
f 192/154/86 229/82/37 214/108/67
f 95/155/84 51/156/64 129/157/89
f 63/140/62 78/125/76 40/158/90
f 99/159/91 78/125/76 91/124/65
f 129/160/89 51/161/64 58/162/63
f 81/163/92 129/160/89 58/162/63
f 91/124/65 82/164/55 99/159/91
f 213/145/47 167/153/88 188/146/85
f 117/131/79 171/112/70 115/132/80
f 171/116/70 146/115/71 115/165/80
f 82/164/55 101/166/56 88/167/93
f 82/164/55 88/167/93 90/168/94
f 82/164/55 90/168/94 89/169/95
f 90/168/94 88/167/93 101/166/56
f 90/168/94 101/166/56 89/169/95
f 118/170/58 82/164/55 89/169/95
f 118/170/58 89/169/95 101/166/56
f 135/171/81 82/164/55 118/170/58
f 109/172/96 82/164/55 135/171/81
f 81/173/92 63/140/62 40/158/90
f 81/173/92 58/174/63 63/140/62
f 198/175/11 149/176/97 184/177/78
f 57/178/98 187/152/87 28/128/77
f 57/178/98 28/128/77 56/135/82
f 131/179/99 135/180/81 115/165/80
f 56/135/82 55/142/83 84/181/100
f 214/129/67 28/128/77 187/152/87
f 192/151/86 187/152/87 150/182/101
f 173/183/68 189/120/66 155/119/72
f 109/184/96 135/180/81 131/179/99
f 131/185/99 137/186/102 109/187/96
f 95/144/84 84/181/100 55/142/83
f 84/188/100 95/155/84 119/189/103
f 57/178/98 56/135/82 133/190/104
f 79/191/105 133/190/104 56/135/82
f 100/192/106 40/158/90 78/125/76
f 56/193/82 84/188/100 97/194/107
f 79/195/105 56/193/82 97/194/107
f 100/196/106 81/163/92 40/197/90
f 169/114/69 140/198/108 146/115/71
f 158/199/109 169/114/69 173/200/68
f 100/192/106 78/125/76 99/159/91
f 81/163/92 100/196/106 129/160/89
f 136/201/110 129/160/89 114/202/111
f 100/196/106 114/202/111 129/160/89
f 184/177/78 149/176/97 155/203/72
f 115/165/80 146/115/71 140/198/108
f 155/204/72 142/205/112 173/200/68
f 97/194/107 86/206/113 79/195/105
f 149/176/97 198/175/11 188/207/85
f 86/206/113 133/208/104 79/195/105
f 97/194/107 84/188/100 119/189/103
f 2/209/114 140/198/108 158/199/109
f 158/199/109 140/198/108 169/114/69
f 115/165/80 126/210/115 131/179/99
f 114/202/111 100/196/106 99/211/91
f 82/164/55 109/172/96 99/159/91
f 142/212/112 155/203/72 148/213/116
f 167/153/88 202/149/48 153/214/117
f 142/212/112 148/213/116 6/215/118
f 153/214/117 202/149/48 192/151/86
f 6/216/118 173/200/68 142/205/112
f 57/178/98 133/190/104 29/217/119
f 138/218/120 29/219/119 133/208/104
f 119/189/103 95/155/84 129/157/89
f 2/209/114 126/210/115 140/198/108
f 126/210/115 115/165/80 140/198/108
f 173/200/68 6/216/118 158/199/109
f 167/220/88 153/221/117 152/222/121
f 150/182/101 187/152/87 182/223/122
f 132/224/123 114/225/111 137/226/102
f 99/211/91 137/186/102 114/202/111
f 137/186/102 99/211/91 109/187/96
f 150/182/101 153/214/117 192/151/86
f 136/201/110 119/227/103 129/160/89
f 187/152/87 57/178/98 182/223/122
f 167/228/88 152/229/121 188/207/85
f 147/230/124 188/207/85 152/229/121
f 158/199/109 6/216/118 2/209/114
f 29/217/119 182/223/122 57/178/98
f 149/176/97 188/207/85 147/230/124
f 119/227/103 136/201/110 121/231/125
f 121/231/125 136/201/110 114/202/111
f 5/232/126 126/210/115 2/209/114
f 126/210/115 120/233/127 131/179/99
f 133/208/104 86/206/113 138/218/120
f 148/213/116 155/203/72 149/176/97
f 2/209/114 6/216/118 5/232/126
f 131/185/99 120/234/127 137/186/102
f 121/235/125 134/236/128 104/237/129
f 120/238/127 124/239/130 137/240/102
f 121/235/125 114/225/111 132/224/123
f 123/241/131 138/218/120 86/206/113
f 121/235/125 110/242/132 119/243/103
f 119/189/103 110/244/132 97/194/107
f 105/245/133 97/246/107 110/247/132
f 97/246/107 80/248/134 96/249/135
f 94/250/136 97/246/107 96/249/135
f 124/239/130 120/238/127 103/251/137
f 126/252/115 103/251/137 120/238/127
f 126/252/115 5/253/126 39/254/138
f 39/254/138 103/251/137 126/252/115
f 103/251/137 9/255/139 61/256/140
f 9/255/139 144/257/141 61/256/140
f 138/218/120 123/241/131 29/219/119
f 42/258/142 29/259/119 123/260/131
f 97/261/107 94/262/136 86/263/113
f 182/264/122 42/258/142 190/265/143
f 182/264/122 29/259/119 42/258/142
f 160/266/144 147/267/124 152/268/121
f 160/266/144 152/268/121 8/269/145
f 6/270/118 9/255/139 5/253/126
f 150/271/101 182/272/122 156/273/146
f 156/273/146 153/274/117 150/271/101
f 6/270/118 148/275/116 143/276/147
f 143/276/147 148/275/116 145/277/148
f 162/278/149 153/274/117 156/273/146
f 152/268/121 165/279/150 8/269/145
f 162/278/149 152/280/121 153/274/117
f 152/281/121 162/282/149 165/283/150
f 137/226/102 127/284/151 132/224/123
f 127/284/151 137/226/102 130/285/152
f 106/286/153 98/287/154 134/236/128
f 106/286/153 134/236/128 127/284/151
f 132/224/123 127/284/151 134/236/128
f 149/288/97 147/289/124 161/290/155
f 5/253/126 9/255/139 39/254/138
f 145/291/148 149/288/97 161/290/155
f 147/289/124 157/292/156 161/290/155
f 149/288/97 145/291/148 148/293/116
f 9/255/139 6/270/118 143/276/147
f 143/276/147 145/277/148 144/257/141
f 130/294/152 137/240/102 124/239/130
f 103/251/137 108/295/157 124/239/130
f 94/296/136 69/297/158 123/260/131
f 86/263/113 94/262/136 123/298/131
f 76/299/159 72/300/160 116/301/161
f 121/235/125 132/224/123 134/236/128
f 39/254/138 9/255/139 103/251/137
f 110/242/132 121/235/125 116/302/161
f 104/237/129 116/302/161 121/235/125
f 122/303/162 103/251/137 61/256/140
f 105/245/133 80/248/134 97/246/107
f 9/255/139 143/276/147 144/257/141
f 123/260/131 125/304/163 42/258/142
f 93/305/164 190/265/143 125/304/163
f 141/306/165 157/292/156 147/289/124
f 161/290/155 157/292/156 145/291/148
f 165/283/150 176/307/166 160/308/144
f 172/309/167 160/308/144 176/307/166
f 8/310/145 165/283/150 160/308/144
f 110/311/132 116/301/161 60/312/168
f 190/265/143 156/313/146 182/264/122
f 147/289/124 160/314/144 141/306/165
f 104/237/129 134/236/128 128/315/169
f 60/312/168 116/301/161 72/300/160
f 60/312/168 72/300/160 64/316/170
f 62/317/171 64/318/170 110/311/132
f 110/311/132 64/318/170 72/319/160
f 60/312/168 62/317/171 110/311/132
f 76/320/159 110/311/132 72/319/160
f 110/247/132 76/321/159 105/245/133
f 105/245/133 76/321/159 60/322/168
f 124/239/130 108/295/157 130/294/152
f 42/258/142 125/304/163 190/265/143
f 98/287/154 128/315/169 134/236/128
f 76/323/159 104/237/129 113/324/172
f 116/302/161 104/237/129 76/323/159
f 64/325/170 62/326/171 76/321/159
f 76/321/159 62/326/171 60/322/168
f 113/327/172 64/328/170 76/329/159
f 113/327/172 60/322/168 64/328/170
f 106/286/153 127/284/151 130/285/152
f 108/295/157 103/251/137 122/303/162
f 105/245/133 60/322/168 113/327/172
f 113/330/172 83/331/173 105/332/133
f 80/333/134 105/332/133 83/331/173
f 145/277/148 157/334/156 166/335/174
f 128/315/169 113/324/172 104/237/129
f 160/314/144 183/336/175 141/306/165
f 125/304/163 123/260/131 69/297/158
f 108/295/157 102/337/176 106/338/153
f 108/295/157 106/338/153 130/294/152
f 176/307/166 165/283/150 162/282/149
f 190/265/143 93/305/164 174/339/177
f 174/339/177 204/340/178 195/341/179
f 190/265/143 174/339/177 156/313/146
f 113/324/172 128/315/169 112/342/180
f 166/335/174 144/257/141 145/277/148
f 164/343/181 107/344/182 61/345/140
f 107/346/182 122/303/162 61/256/140
f 61/256/140 144/257/141 164/347/181
f 195/341/179 156/313/146 180/348/183
f 174/339/177 195/341/179 181/349/184
f 181/349/184 195/341/179 180/348/183
f 181/349/184 180/348/183 178/350/185
f 181/349/184 178/350/185 174/339/177
f 178/350/185 180/348/183 156/313/146
f 174/339/177 178/350/185 156/313/146
f 125/304/163 69/297/158 93/305/164
f 108/295/157 122/303/162 107/346/182
f 156/313/146 200/351/186 162/352/149
f 200/353/186 201/354/187 162/355/149
f 162/356/149 201/357/187 176/358/166
f 108/295/157 107/346/182 102/337/176
f 144/359/141 179/360/188 164/343/181
f 166/361/174 179/360/188 144/359/141
f 87/362/189 98/287/154 102/363/176
f 102/363/176 98/287/154 106/286/153
f 77/364/190 102/365/176 85/366/191
f 66/367/192 67/368/193 77/364/190
f 66/367/192 85/366/191 73/369/194
f 157/292/156 141/306/165 183/336/175
f 183/370/175 160/308/144 203/371/195
f 177/372/196 166/361/174 191/373/197
f 128/315/169 87/362/189 111/374/198
f 98/287/154 87/362/189 128/315/169
f 85/366/191 102/365/176 107/344/182
f 85/366/191 107/344/182 74/375/199
f 67/376/193 92/377/200 87/378/189
f 44/379/201 174/339/177 93/305/164
f 113/330/172 112/380/180 83/331/173
f 166/361/174 157/381/156 191/373/197
f 65/382/202 112/383/180 111/384/198
f 128/315/169 111/374/198 112/342/180
f 156/313/146 195/341/179 200/351/186
f 94/250/136 96/249/135 69/385/158
f 47/386/203 69/387/158 96/388/135
f 92/377/200 111/384/198 87/378/189
f 177/372/196 179/360/188 166/361/174
f 201/389/187 172/390/167 176/391/166
f 77/364/190 87/392/189 102/365/176
f 179/360/188 74/375/199 107/344/182
f 164/343/181 179/360/188 107/344/182
f 157/393/156 183/394/175 191/395/197
f 160/308/144 172/309/167 203/371/195
f 172/390/167 201/389/187 203/396/195
f 59/397/204 73/369/194 74/375/199
f 47/398/203 96/399/135 80/400/134
f 87/378/189 77/401/190 67/376/193
f 174/339/177 44/379/201 204/340/178
f 83/331/173 70/402/205 80/333/134
f 177/372/196 193/403/206 179/360/188
f 59/397/204 179/360/188 193/403/206
f 179/360/188 59/397/204 74/375/199
f 44/379/201 93/305/164 38/404/207
f 69/297/158 38/404/207 93/305/164
f 85/366/191 66/367/192 77/364/190
f 193/403/206 177/372/196 196/405/208
f 70/406/205 83/407/173 37/408/209
f 236/409/210 203/410/195 218/411/211
f 183/394/175 203/412/195 191/395/197
f 74/375/199 73/369/194 85/366/191
f 83/413/173 112/383/180 65/382/202
f 65/382/202 111/384/198 92/377/200
f 44/414/201 38/415/207 204/416/178
f 204/416/178 216/417/212 195/418/179
f 92/377/200 35/419/213 52/420/214
f 67/376/193 35/419/213 92/377/200
f 59/397/204 193/403/206 43/421/215
f 70/422/205 32/423/216 80/424/134
f 66/367/192 35/425/213 67/368/193
f 46/426/217 83/413/173 65/382/202
f 196/405/208 177/372/196 191/373/197
f 203/427/195 201/428/187 218/429/211
f 239/430/218 201/354/187 200/353/186
f 193/431/206 196/432/208 219/433/219
f 219/433/219 43/434/215 193/431/206
f 46/426/217 37/435/209 83/413/173
f 227/436/220 10/437/221 3/438/222
f 3/439/222 236/409/210 241/440/223
f 241/440/223 227/441/220 3/439/222
f 232/442/224 175/443/225 163/444/226
f 203/410/195 236/409/210 191/445/197
f 43/421/215 73/369/194 59/397/204
f 186/446/227 13/447/228 25/448/229
f 3/439/222 13/449/228 233/450/230
f 3/439/222 233/450/230 236/409/210
f 73/369/194 43/421/215 49/451/231
f 45/452/232 49/453/231 43/434/215
f 32/454/216 37/408/209 12/455/233
f 241/456/223 240/457/234 227/436/220
f 47/458/203 80/424/134 32/423/216
f 65/382/202 92/377/200 52/420/214
f 49/451/231 66/367/192 73/369/194
f 32/454/216 70/406/205 37/408/209
f 154/459/235 47/458/203 32/423/216
f 175/443/225 232/442/224 216/417/212
f 204/416/178 175/443/225 216/417/212
f 20/460/236 163/461/226 38/462/207
f 38/415/207 163/444/226 175/443/225
f 69/463/158 20/460/236 38/462/207
f 191/464/197 233/465/230 226/466/237
f 191/467/197 226/468/237 196/432/208
f 196/432/208 226/468/237 219/433/219
f 186/446/227 233/469/230 13/447/228
f 226/468/237 233/469/230 186/446/227
f 46/470/217 65/471/202 16/472/238
f 233/473/230 209/474/239 211/475/240
f 233/465/230 191/464/197 209/476/239
f 191/464/197 236/477/210 210/478/241
f 191/464/197 210/478/241 209/476/239
f 209/474/239 210/479/241 211/475/240
f 211/475/240 210/479/241 236/480/210
f 211/475/240 236/480/210 233/473/230
f 216/417/212 239/430/218 195/418/179
f 239/430/218 216/417/212 232/442/224
f 47/458/203 20/460/236 69/463/158
f 163/461/226 20/460/236 168/481/242
f 154/459/235 20/460/236 47/458/203
f 66/482/192 24/483/243 35/484/213
f 25/448/229 24/483/243 49/453/231
f 24/483/243 25/448/229 13/447/228
f 13/447/228 3/485/222 35/484/213
f 66/482/192 49/453/231 24/483/243
f 24/483/243 13/447/228 35/484/213
f 200/353/186 195/418/179 239/430/218
f 201/428/187 240/457/234 218/429/211
f 32/454/216 12/455/233 154/486/235
f 38/415/207 175/443/225 204/416/178
f 35/487/213 3/488/222 52/489/214
f 49/453/231 45/452/232 26/490/244
f 37/408/209 17/491/245 12/455/233
f 201/428/187 239/492/218 240/457/234
f 26/490/244 25/448/229 49/453/231
f 16/472/238 65/471/202 52/489/214
f 45/452/232 43/434/215 219/433/219
f 46/470/217 16/472/238 37/493/209
f 45/452/232 219/433/219 26/490/244
f 219/433/219 186/446/227 26/490/244
f 219/433/219 226/468/237 186/446/227
f 37/408/209 16/494/238 17/491/245
f 154/486/235 168/495/242 20/496/236
f 218/429/211 240/457/234 241/456/223
f 26/490/244 186/446/227 25/448/229
f 239/492/218 168/495/242 240/457/234
f 218/411/211 241/440/223 236/409/210
f 52/489/214 3/488/222 16/472/238
f 10/437/221 17/491/245 16/494/238
f 239/430/218 232/442/224 163/444/226
f 163/444/226 168/497/242 239/430/218
f 16/472/238 3/488/222 10/498/221
f 17/491/245 10/437/221 12/455/233
f 12/455/233 10/437/221 154/486/235
f 240/457/234 10/437/221 227/436/220
f 154/486/235 240/457/234 168/495/242
f 154/486/235 10/437/221 240/457/234
