# Blender 5.2.0 LTS
# www.blender.org
mtllib HASI.mtl
o Low_Hashi
v -0.001578 -0.005572 0.526279
v -0.001545 -0.001545 0.530273
v -0.005572 -0.001578 0.526279
v -0.001561 -0.005022 0.528274
v -0.003572 -0.005038 0.526279
v -0.003472 -0.004504 0.528189
v -0.003544 -0.001549 0.529739
v -0.001549 -0.003544 0.529739
v -0.003464 -0.003464 0.529221
v -0.005038 -0.003572 0.526279
v -0.005022 -0.001561 0.528274
v -0.004504 -0.003472 0.528189
v -0.001545 0.001545 0.530273
v -0.001578 0.005572 0.526279
v -0.005572 0.001578 0.526279
v -0.001549 0.003544 0.529739
v -0.003544 0.001549 0.529739
v -0.003464 0.003464 0.529221
v -0.003572 0.005038 0.526279
v -0.001561 0.005022 0.528274
v -0.003472 0.004504 0.528189
v -0.005022 0.001561 0.528274
v -0.005038 0.003572 0.526279
v -0.004504 0.003472 0.528189
v -0.010164 -0.014158 -0.515841
v -0.014158 -0.010164 -0.515841
v -0.010197 -0.010197 -0.519835
v -0.012158 -0.013625 -0.515841
v -0.010180 -0.013641 -0.517836
v -0.012090 -0.013122 -0.517751
v -0.013641 -0.010180 -0.517836
v -0.013625 -0.012158 -0.515841
v -0.013122 -0.012090 -0.517751
v -0.010192 -0.012187 -0.519302
v -0.012187 -0.010192 -0.519302
v -0.012098 -0.012098 -0.518783
v -0.010164 0.014158 -0.515841
v -0.010197 0.010197 -0.519835
v -0.014158 0.010164 -0.515841
v -0.010180 0.013641 -0.517836
v -0.012158 0.013625 -0.515841
v -0.012090 0.013122 -0.517751
v -0.012187 0.010192 -0.519302
v -0.010192 0.012187 -0.519302
v -0.012098 0.012098 -0.518783
v -0.013625 0.012158 -0.515841
v -0.013641 0.010180 -0.517836
v -0.013122 0.012090 -0.517751
v 0.001578 -0.005572 0.526279
v 0.005572 -0.001578 0.526279
v 0.001545 -0.001545 0.530273
v 0.003572 -0.005038 0.526279
v 0.001561 -0.005022 0.528274
v 0.003472 -0.004504 0.528189
v 0.005022 -0.001561 0.528274
v 0.005038 -0.003572 0.526279
v 0.004504 -0.003472 0.528189
v 0.001549 -0.003544 0.529739
v 0.003544 -0.001549 0.529739
v 0.003464 -0.003464 0.529221
v 0.001578 0.005572 0.526279
v 0.001545 0.001545 0.530273
v 0.005572 0.001578 0.526279
v 0.001561 0.005022 0.528274
v 0.003572 0.005038 0.526279
v 0.003472 0.004504 0.528189
v 0.003544 0.001549 0.529739
v 0.001549 0.003544 0.529739
v 0.003464 0.003464 0.529221
v 0.005038 0.003572 0.526279
v 0.005022 0.001561 0.528274
v 0.004504 0.003472 0.528189
v 0.010164 -0.014158 -0.515841
v 0.010197 -0.010197 -0.519835
v 0.014158 -0.010164 -0.515841
v 0.010180 -0.013641 -0.517836
v 0.012158 -0.013625 -0.515841
v 0.012090 -0.013122 -0.517751
v 0.012187 -0.010192 -0.519302
v 0.010192 -0.012187 -0.519302
v 0.012098 -0.012098 -0.518783
v 0.013625 -0.012158 -0.515841
v 0.013641 -0.010180 -0.517836
v 0.013122 -0.012090 -0.517751
v 0.010164 0.014158 -0.515841
v 0.014158 0.010164 -0.515841
v 0.010197 0.010197 -0.519835
v 0.012158 0.013625 -0.515841
v 0.010180 0.013641 -0.517836
v 0.012090 0.013122 -0.517751
v 0.013641 0.010180 -0.517836
v 0.013625 0.012158 -0.515841
v 0.013122 0.012090 -0.517751
v 0.010192 0.012187 -0.519302
v 0.012187 0.010192 -0.519302
v 0.012098 0.012098 -0.518783
vn -0.1294 -0.9819 0.1383
vn -0.1291 -0.1291 0.9832
vn -0.9819 -0.1294 0.1383
vn -0.1210 -0.8591 0.4973
vn -0.4909 -0.8611 0.1321
vn -0.4455 -0.7712 0.4547
vn -0.4892 -0.1209 0.8638
vn -0.1209 -0.4892 0.8638
vn -0.4448 -0.4448 0.7774
vn -0.8611 -0.4909 0.1321
vn -0.8591 -0.1210 0.4973
vn -0.7712 -0.4455 0.4547
vn -0.1291 0.1291 0.9832
vn -0.1294 0.9819 0.1383
vn -0.9819 0.1294 0.1383
vn -0.1209 0.4892 0.8638
vn -0.4892 0.1209 0.8638
vn -0.4448 0.4448 0.7774
vn -0.4909 0.8611 0.1321
vn -0.1210 0.8591 0.4973
vn -0.4455 0.7712 0.4547
vn -0.8591 0.1210 0.4973
vn -0.8611 0.4909 0.1321
vn -0.7712 0.4455 0.4547
vn -0.1298 -0.9842 -0.1208
vn -0.9842 -0.1298 -0.1208
vn -0.1301 -0.1301 -0.9829
vn -0.4922 -0.8634 -0.1110
vn -0.1222 -0.8655 -0.4858
vn -0.4492 -0.7776 -0.4399
vn -0.8655 -0.1222 -0.4858
vn -0.8634 -0.4922 -0.1110
vn -0.7776 -0.4492 -0.4399
vn -0.1223 -0.4939 -0.8609
vn -0.4939 -0.1223 -0.8609
vn -0.4499 -0.4499 -0.7715
vn -0.1298 0.9842 -0.1208
vn -0.1301 0.1301 -0.9829
vn -0.9842 0.1298 -0.1208
vn -0.1222 0.8655 -0.4858
vn -0.4922 0.8634 -0.1110
vn -0.4492 0.7776 -0.4399
vn -0.4939 0.1223 -0.8609
vn -0.1223 0.4939 -0.8609
vn -0.4499 0.4499 -0.7715
vn -0.8634 0.4922 -0.1110
vn -0.8655 0.1222 -0.4858
vn -0.7776 0.4492 -0.4399
vn 0.1294 -0.9819 0.1383
vn 0.9819 -0.1294 0.1383
vn 0.1291 -0.1291 0.9832
vn 0.4909 -0.8611 0.1321
vn 0.1210 -0.8591 0.4973
vn 0.4455 -0.7712 0.4547
vn 0.8591 -0.1210 0.4973
vn 0.8611 -0.4909 0.1321
vn 0.7712 -0.4455 0.4547
vn 0.1209 -0.4892 0.8638
vn 0.4892 -0.1209 0.8638
vn 0.4448 -0.4448 0.7774
vn 0.1294 0.9819 0.1383
vn 0.1291 0.1291 0.9832
vn 0.9819 0.1294 0.1383
vn 0.1210 0.8591 0.4973
vn 0.4909 0.8611 0.1321
vn 0.4455 0.7712 0.4547
vn 0.4892 0.1209 0.8638
vn 0.1209 0.4892 0.8638
vn 0.4448 0.4448 0.7774
vn 0.8611 0.4909 0.1321
vn 0.8591 0.1210 0.4973
vn 0.7712 0.4455 0.4547
vn 0.1298 -0.9842 -0.1208
vn 0.1301 -0.1301 -0.9829
vn 0.9842 -0.1298 -0.1208
vn 0.1222 -0.8655 -0.4858
vn 0.4922 -0.8634 -0.1110
vn 0.4492 -0.7776 -0.4399
vn 0.4939 -0.1223 -0.8609
vn 0.1223 -0.4939 -0.8609
vn 0.4499 -0.4499 -0.7715
vn 0.8634 -0.4922 -0.1110
vn 0.8655 -0.1222 -0.4858
vn 0.7776 -0.4492 -0.4399
vn 0.1298 0.9842 -0.1208
vn 0.9842 0.1298 -0.1208
vn 0.1301 0.1301 -0.9829
vn 0.4922 0.8634 -0.1110
vn 0.1222 0.8655 -0.4858
vn 0.4492 0.7776 -0.4399
vn 0.8655 0.1222 -0.4858
vn 0.8634 0.4922 -0.1110
vn 0.7776 0.4492 -0.4399
vn 0.1223 0.4939 -0.8609
vn 0.4939 0.1223 -0.8609
vn 0.4499 0.4499 -0.7715
vt 0.214525 0.749049
vt 0.214805 0.749525
vt 0.171768 0.749506
vt 0.169736 0.749050
vt 0.215038 0.750000
vt 0.171837 0.750000
vt 0.465136 0.909864
vt 0.465038 1.000000
vt 0.375000 0.953163
vt 0.375000 0.909962
vt 0.465038 0.000000
vt 0.464805 0.000475
vt 0.375000 0.000490
vt 0.375003 -0.000004
vt 0.464525 0.000951
vt 0.375000 0.000946
vt 0.125000 0.749054
vt 0.125000 0.749510
vt 0.534864 0.909864
vt 0.579972 0.909962
vt 0.578163 1.000000
vt 0.534962 1.000000
vt 0.625000 0.910233
vt 0.625383 1.000383
vt 0.785475 0.749049
vt 0.875000 0.749054
vt 0.875000 0.749510
vt 0.785233 0.750000
vt 0.625000 0.000946
vt 0.580264 0.000950
vt 0.578232 0.000494
vt 0.625000 0.000490
vt 0.535475 0.000951
vt 0.535195 0.000475
vt 0.534962 0.000000
vt 0.578163 0.000000
vt 0.160372 0.500951
vt 0.142739 0.500952
vt 0.143450 0.500498
vt 0.160298 0.500477
vt 0.125000 0.500956
vt 0.125000 0.500502
vt 0.410372 0.249049
vt 0.410298 0.249523
vt 0.375000 0.249498
vt 0.375000 0.249044
vt 0.410221 0.267653
vt 0.375000 0.268434
vt 0.410182 0.285182
vt 0.375000 0.285221
vt 0.160222 0.500000
vt 0.143434 0.500000
vt 0.839628 0.500951
vt 0.839672 0.500000
vt 0.875000 0.500502
vt 0.875000 0.500956
vt 0.625000 0.285328
vt 0.607347 0.285222
vt 0.606570 0.263762
vt 0.624949 0.249716
vt 0.589818 0.285182
vt 0.589778 0.267653
vt 0.589702 0.249523
vt 0.606550 0.249502
vt 0.589628 0.249049
vt 0.607261 0.249048
vt 0.625000 0.249044
vt 0.285475 0.749049
vt 0.330264 0.749050
vt 0.328232 0.749506
vt 0.285195 0.749525
vt 0.419736 0.749050
vt 0.404185 0.749506
vt 0.464525 0.749049
vt 0.464805 0.749525
vt 0.465038 0.795028
vt 0.351582 0.773418
vt 0.465136 0.840136
vt 0.329981 0.795019
vt 0.714525 0.749049
vt 0.669883 0.794883
vt 0.648323 0.773323
vt 0.669736 0.749050
vt 0.579972 0.840038
vt 0.578163 0.796837
vt 0.534864 0.840136
vt 0.534962 0.795028
vt 0.535195 0.749525
vt 0.578263 0.755467
vt 0.535475 0.749049
vt 0.580264 0.749050
vt 0.339628 0.500951
vt 0.339702 0.500477
vt 0.356550 0.500498
vt 0.357261 0.500952
vt 0.357389 0.482389
vt 0.365783 0.490783
vt 0.410182 0.464818
vt 0.410221 0.482347
vt 0.410298 0.500477
vt 0.386506 0.500499
vt 0.410372 0.500951
vt 0.392738 0.500952
vt 0.660372 0.500951
vt 0.642738 0.500952
vt 0.634255 0.490745
vt 0.642664 0.482336
vt 0.607261 0.500952
vt 0.606535 0.498019
vt 0.589628 0.500951
vt 0.589702 0.500477
vt 0.589778 0.482347
vt 0.606566 0.481566
vt 0.589818 0.464818
vt 0.607347 0.464779
s 1
f 1/1/1 4/2/4 6/3/6 5/4/5
f 4/2/4 8/5/8 9/6/9 6/3/6
f 2/7/2 7/8/7 9/9/9 8/10/8
f 7/11/7 11/12/11 12/13/12 9/14/9
f 3/15/3 10/16/10 12/13/12 11/12/11
f 10/17/10 5/4/5 6/3/6 12/18/12
f 6/3/6 9/6/9 12/18/12
f 13/19/13 16/20/16 18/21/18 17/22/17
f 16/20/16 20/23/20 21/24/21 18/21/18
f 14/25/14 19/26/19 21/27/21 20/28/20
f 19/29/19 23/30/23 24/31/24 21/32/21
f 15/33/15 22/34/22 24/31/24 23/30/23
f 22/34/22 17/35/17 18/36/18 24/31/24
f 18/36/18 21/32/21 24/31/24
f 25/37/25 28/38/28 30/39/30 29/40/29
f 28/38/28 32/41/32 33/42/33 30/39/30
f 26/43/26 31/44/31 33/45/33 32/46/32
f 31/44/31 35/47/35 36/48/36 33/45/33
f 27/49/27 34/50/34 36/48/36 35/47/35
f 34/51/34 29/40/29 30/39/30 36/52/36
f 30/39/30 33/42/33 36/52/36
f 37/53/37 40/54/40 42/55/42 41/56/41
f 40/57/40 44/58/44 45/59/45 42/60/42
f 38/61/38 43/62/43 45/59/45 44/58/44
f 43/62/43 47/63/47 48/64/48 45/59/45
f 39/65/39 46/66/46 48/64/48 47/63/47
f 46/66/46 41/67/41 42/60/42 48/64/48
f 42/60/42 45/59/45 48/64/48
f 49/68/49 52/69/52 54/70/54 53/71/53
f 52/69/52 56/72/56 57/73/57 54/70/54
f 50/74/50 55/75/55 57/73/57 56/72/56
f 55/75/55 59/76/59 60/77/60 57/73/57
f 51/78/51 58/79/58 60/77/60 59/76/59
f 58/79/58 53/71/53 54/70/54 60/77/60
f 54/70/54 57/73/57 60/77/60
f 61/80/61 64/81/64 66/82/66 65/83/65
f 64/81/64 68/84/68 69/85/69 66/82/66
f 62/86/62 67/87/67 69/85/69 68/84/68
f 67/87/67 71/88/71 72/89/72 69/85/69
f 63/90/63 70/91/70 72/89/72 71/88/71
f 70/91/70 65/83/65 66/82/66 72/89/72
f 66/82/66 69/85/69 72/89/72
f 73/92/73 76/93/76 78/94/78 77/95/77
f 76/93/76 80/96/80 81/97/81 78/94/78
f 74/98/74 79/99/79 81/97/81 80/96/80
f 79/99/79 83/100/83 84/101/84 81/97/81
f 75/102/75 82/103/82 84/101/84 83/100/83
f 82/103/82 77/95/77 78/94/78 84/101/84
f 78/94/78 81/97/81 84/101/84
f 85/104/85 88/105/88 90/106/90 89/107/89
f 88/105/88 92/108/92 93/109/93 90/106/90
f 86/110/86 91/111/91 93/109/93 92/108/92
f 91/111/91 95/112/95 96/113/96 93/109/93
f 87/114/87 94/115/94 96/113/96 95/112/95
f 94/115/94 89/107/89 90/106/90 96/113/96
f 90/106/90 93/109/93 96/113/96
f 25/37/25 1/1/1 5/4/5 28/38/28
f 28/38/28 5/4/5 10/17/10 32/41/32
f 32/46/32 10/16/10 3/15/3 26/43/26
f 2/7/2 13/19/13 17/22/17 7/8/7
f 7/11/7 17/35/17 22/34/22 11/12/11
f 11/12/11 22/34/22 15/33/15 3/15/3
f 14/25/14 37/53/37 41/56/41 19/26/19
f 19/29/19 41/67/41 46/66/46 23/30/23
f 23/30/23 46/66/46 39/65/39 15/33/15
f 38/61/38 27/49/27 35/47/35 43/62/43
f 43/62/43 35/47/35 31/44/31 47/63/47
f 47/63/47 31/44/31 26/43/26 39/65/39
f 73/92/73 25/37/25 29/40/29 76/93/76
f 76/93/76 29/40/29 34/51/34 80/96/80
f 80/96/80 34/50/34 27/49/27 74/98/74
f 37/53/37 85/104/85 89/107/89 40/54/40
f 40/57/40 89/107/89 94/115/94 44/58/44
f 44/58/44 94/115/94 87/114/87 38/61/38
f 86/110/86 75/102/75 83/100/83 91/111/91
f 91/111/91 83/100/83 79/99/79 95/112/95
f 95/112/95 79/99/79 74/98/74 87/114/87
f 49/68/49 73/92/73 77/95/77 52/69/52
f 52/69/52 77/95/77 82/103/82 56/72/56
f 56/72/56 82/103/82 75/102/75 50/74/50
f 85/104/85 61/80/61 65/83/65 88/105/88
f 88/105/88 65/83/65 70/91/70 92/108/92
f 92/108/92 70/91/70 63/90/63 86/110/86
f 62/86/62 51/78/51 59/76/59 67/87/67
f 67/87/67 59/76/59 55/75/55 71/88/71
f 71/88/71 55/75/55 50/74/50 63/90/63
f 1/1/1 49/68/49 53/71/53 4/2/4
f 4/2/4 53/71/53 58/79/58 8/5/8
f 8/10/8 58/79/58 51/78/51 2/7/2
f 61/80/61 14/25/14 20/28/20 64/81/64
f 64/81/64 20/23/20 16/20/16 68/84/68
f 68/84/68 16/20/16 13/19/13 62/86/62
f 25/37/25 73/92/73 49/68/49 1/1/1
f 3/15/3 15/33/15 39/65/39 26/43/26
f 51/78/51 62/86/62 13/19/13 2/7/2
f 85/104/85 37/53/37 14/25/14 61/80/61
f 27/49/27 38/61/38 87/114/87 74/98/74
f 75/102/75 86/110/86 63/90/63 50/74/50
