# Blender 5.2.0 LTS
# www.blender.org
mtllib NINZIN.mtl
o tripo_node_6abc821d
v -0.460809 0.099339 0.312758
v 0.152307 -0.040251 0.395051
v -0.469398 0.095265 -0.307743
v 0.010786 -0.013182 -0.446044
v 0.185550 -0.052246 -0.213711
v -0.478164 0.090380 0.302718
v -0.298710 0.048959 -0.305409
v -0.416920 0.074356 -0.089497
v -0.425524 0.074705 -0.312501
v 0.189563 -0.061290 0.173586
v -0.128197 0.002999 -0.322177
v 0.168150 -0.062409 0.329947
v -0.479283 0.068188 -0.289789
v 0.381530 -0.129871 -0.074367
v 0.132519 -0.075907 0.468199
v -0.473529 0.055775 0.253530
v 0.248110 -0.114975 0.146590
v 0.315273 -0.130933 -0.117036
v 0.187598 -0.106751 0.216131
v 0.459428 -0.166756 0.015601
v -0.158119 -0.031846 -0.276434
v -0.435516 0.028487 0.129475
v 0.453293 -0.168207 -0.022323
v 0.280840 -0.131256 -0.129033
v 0.321854 -0.144108 0.112241
v 0.188802 -0.115006 -0.170536
v 0.392087 -0.166485 0.059981
v 0.236999 -0.132648 -0.151160
v 0.182661 -0.122073 -0.223931
v 0.170696 -0.119667 -0.291312
v 0.088291 -0.103967 0.483203
v 0.363427 -0.166276 -0.077324
v 0.144748 -0.118631 -0.387427
v 0.082410 -0.106998 -0.477533
v 0.335057 -0.164620 0.087150
v 0.441663 -0.188147 -0.021634
v 0.165248 -0.127638 0.328942
v 0.186634 -0.133490 0.171179
v 0.316376 -0.162022 -0.102950
v 0.117110 -0.121279 -0.472062
v 0.284619 -0.158650 -0.031844
v 0.160967 -0.131959 -0.345079
v 0.425654 -0.191209 -0.004958
v 0.153143 -0.133464 0.389700
v 0.178186 -0.142059 -0.167419
v 0.136298 -0.133599 0.420291
v 0.317089 -0.174399 0.041351
v 0.162169 -0.140508 0.296084
v 0.159137 -0.141750 -0.290541
v 0.206765 -0.158752 -0.089780
v 0.239180 -0.166248 0.073278
v 0.119467 -0.141381 0.464166
v 0.160828 -0.151071 0.158382
v 0.161055 -0.151147 -0.155533
v 0.197167 -0.159196 -0.023159
v 0.137147 -0.147631 -0.289377
v -0.402608 -0.030870 0.058706
v 0.008138 -0.121353 0.431792
v 0.115203 -0.145715 -0.435109
v -0.028522 -0.115630 -0.104567
v 0.091251 -0.142650 0.467719
v -0.022715 -0.117901 -0.420950
v 0.138566 -0.153590 0.177439
v 0.106760 -0.146680 0.303308
v 0.085756 -0.142637 0.067988
v -0.005103 -0.123646 -0.138591
v 0.060823 -0.138606 -0.008175
v 0.111457 -0.151383 -0.381357
v 0.092112 -0.149094 -0.465383
v 0.023000 -0.134476 -0.440417
v 0.015302 -0.133482 0.065103
v 0.017992 -0.135083 -0.115930
v -0.011851 -0.128851 -0.161526
v 0.090238 -0.151285 -0.190280
v 0.033446 -0.138905 0.111258
v 0.043778 -0.143242 -0.319005
v -0.015387 -0.131174 -0.083653
v 0.011051 -0.137400 0.422767
v 0.089971 -0.156556 0.427681
v -0.108174 -0.114487 -0.334256
v -0.377471 -0.055842 0.006600
v -0.056873 -0.128474 0.383046
v -0.050355 -0.130025 -0.086091
v -0.002244 -0.140705 -0.355107
v 0.009012 -0.144760 -0.187161
v -0.021742 -0.138170 0.166306
v -0.058831 -0.130749 -0.121303
v -0.064053 -0.129996 -0.022405
v -0.044284 -0.134623 -0.367775
v -0.007271 -0.145307 0.364272
v -0.043657 -0.137820 -0.390044
v -0.023593 -0.142749 -0.178024
v -0.148894 -0.115587 -0.277572
v -0.115576 -0.125858 0.064043
v -0.121297 -0.124697 -0.028342
v -0.103637 -0.128673 0.104589
v -0.128337 -0.126141 -0.086046
v -0.177677 -0.115637 0.284460
v -0.145632 -0.124755 0.292175
v -0.361334 -0.080407 0.313474
v -0.099621 -0.139186 -0.300930
v -0.293176 -0.100212 0.307013
v -0.150404 -0.132378 -0.268611
v -0.165502 -0.129247 0.073947
v -0.457397 -0.071695 -0.202088
v -0.257191 -0.118257 -0.297022
v -0.146109 -0.143354 0.215128
v -0.163821 -0.139552 0.248375
v -0.156393 -0.143415 -0.226642
v -0.446842 -0.080869 0.161645
v -0.218272 -0.130964 0.027291
v -0.203545 -0.136683 -0.132816
v -0.239212 -0.133600 -0.289590
v -0.371225 -0.105805 -0.000896
v -0.421852 -0.097601 -0.100844
v -0.417920 -0.098852 0.081719
v -0.342349 -0.117880 -0.305929
v -0.294482 -0.130896 0.300901
v -0.248689 -0.141590 -0.166027
v -0.261191 -0.139956 0.137686
v -0.297419 -0.136813 -0.007921
v -0.291138 -0.138412 -0.266678
v -0.356732 -0.126766 -0.005035
v -0.378788 -0.122527 0.029833
v -0.300109 -0.140546 -0.211111
v -0.327054 -0.136846 0.115399
v -0.347640 -0.135493 -0.224830
v -0.388062 -0.129399 0.187586
v -0.335262 -0.143728 0.234145
v -0.388182 -0.134851 -0.300937
v -0.412554 -0.131693 -0.107577
v -0.477565 -0.119590 0.291522
v -0.438495 -0.131441 -0.310005
v -0.451214 -0.129496 0.309743
v -0.429280 -0.135379 0.147572
v -0.452069 -0.133130 0.209428
v -0.475290 -0.129801 -0.295790
v -0.447097 -0.138139 -0.213702
v -0.451750 -0.144343 -0.278618
v -0.459779 -0.144554 0.285975
v -0.158884 0.037670 0.288748
v -0.340370 0.098643 0.308307
v -0.213051 0.074581 0.288706
v -0.431382 0.123414 0.145988
v -0.110188 0.056728 0.343135
v -0.468533 0.135709 -0.285005
v -0.465299 0.138365 0.274984
v -0.278632 0.100345 0.304834
v -0.451659 0.138475 0.305019
v -0.176771 0.078459 -0.285167
v -0.444955 0.138294 -0.304894
v 0.073424 0.025799 -0.485454
v -0.034605 0.053183 -0.410947
v -0.367735 0.126921 -0.016046
v -0.440654 0.145248 -0.202437
v -0.030045 0.056650 0.412418
v 0.073355 0.034721 0.484193
v -0.362371 0.130874 0.009337
v -0.393549 0.138070 0.072731
v 0.003593 0.054092 -0.438541
v -0.440676 0.156612 0.282277
v -0.405287 0.148874 -0.099830
v 0.136617 0.031020 0.411920
v -0.437595 0.157369 -0.281257
v 0.321881 -0.006884 -0.116362
v 0.332824 -0.005658 0.108836
v 0.163894 0.034766 -0.345856
v -0.411566 0.161919 0.146455
v -0.150850 0.105679 -0.278191
v -0.327018 0.145416 0.298307
v -0.396038 0.164754 -0.138448
v 0.137966 0.048143 -0.401057
v 0.104390 0.055764 -0.491103
v -0.276758 0.139477 -0.296842
v -0.334279 0.163385 -0.000485
v -0.099000 0.115384 -0.339999
v -0.298427 0.161231 -0.280162
v 0.110874 0.071668 0.488572
v 0.279552 0.042084 0.132008
v -0.186861 0.147782 0.277025
v -0.106584 0.130562 0.335635
v -0.315931 0.177717 0.067146
v -0.262112 0.166093 0.272832
v 0.465318 0.006928 0.022337
v -0.272873 0.173447 -0.243473
v -0.151436 0.147160 0.280875
v 0.460407 0.014509 -0.024621
v -0.292131 0.179992 -0.018024
v -0.143473 0.150590 -0.276470
v -0.262851 0.176876 -0.147142
v 0.083730 0.101318 0.483941
v 0.238030 0.069763 0.152130
v -0.015973 0.127595 -0.412547
v -0.239979 0.177567 0.227201
v 0.116644 0.100382 -0.475564
v 0.281386 0.064728 -0.129180
v -0.148967 0.162077 -0.265851
v -0.014270 0.140634 0.408834
v 0.475334 0.036105 0.003875
v 0.183941 0.100961 0.166284
v -0.147671 0.173870 0.246829
v 0.240856 0.090030 -0.149192
v 0.155880 0.109005 0.345187
v 0.097860 0.123223 -0.483335
v 0.161120 0.110924 -0.278339
v 0.030975 0.139533 0.431698
v -0.080672 0.164916 0.333671
v 0.022664 0.142338 -0.429266
v -0.061423 0.163505 -0.351134
v 0.122045 0.129443 0.462740
v -0.122602 0.184047 0.037423
v -0.124695 0.184688 0.203878
v -0.123077 0.185101 -0.220072
v 0.322623 0.091203 0.112195
v 0.104709 0.141398 0.474687
v 0.101557 0.144089 -0.468817
v -0.001442 0.168092 0.371061
v 0.128245 0.139773 -0.397908
v 0.181045 0.128612 -0.164775
v -0.046569 0.181173 -0.309292
v 0.129100 0.143173 0.397597
v -0.051446 0.182960 0.297715
v 0.073058 0.159382 -0.422805
v 0.171981 0.138016 0.177872
v 0.081626 0.161848 0.409127
v 0.148526 0.152262 0.331695
v 0.144547 0.153431 -0.346591
v 0.170035 0.148672 -0.169706
v 0.011241 0.184053 0.249099
v 0.008634 0.185071 -0.215101
v 0.140338 0.165505 0.319642
v 0.383704 0.116441 0.063681
v 0.333834 0.129086 -0.100103
v 0.384712 0.120513 -0.061931
v 0.110076 0.180909 -0.265495
v 0.158579 0.170797 0.158191
v 0.151750 0.175102 -0.152586
v 0.107716 0.186314 0.204092
v 0.107594 0.187674 0.114553
v 0.249330 0.156823 0.130336
v 0.111468 0.187829 -0.133940
v 0.242853 0.160890 -0.129872
v 0.338551 0.140134 0.091752
v 0.463779 0.114167 -0.019241
v 0.462273 0.117862 0.020887
v 0.202912 0.181704 0.107869
v 0.467882 0.124774 0.002664
v 0.236383 0.179107 -0.068181
v 0.345561 0.155738 -0.066491
v 0.241540 0.179296 0.037499
v 0.367725 0.152951 0.052195
v 0.449408 0.144909 -0.000840
vn -0.1010 -0.1934 0.9759
vn 0.4308 0.0677 0.8999
vn -0.3626 0.0046 0.9319
vn -0.3018 0.2203 0.9276
vn 0.2016 0.6715 0.7131
vn -0.6053 0.0661 0.7933
vn -0.4443 0.5418 0.7135
vn -0.4491 0.4970 0.7425
vn 0.8035 -0.0680 0.5915
vn 0.9551 0.0771 0.2859
vn 0.7936 -0.5274 0.3034
vn 0.5405 -0.6226 0.5660
vn 0.8420 0.3633 0.3989
vn 0.7675 0.5731 0.2874
vn 0.1320 0.9632 0.2341
vn 0.9605 0.1561 0.2305
vn -0.5181 -0.2801 0.8081
vn -0.1344 -0.6913 0.7099
vn -0.3719 -0.7674 0.5223
vn 0.0595 -0.9869 0.1499
vn 0.8121 -0.5107 0.2821
vn 0.9076 0.0297 0.4187
vn 0.9460 -0.2803 0.1630
vn -0.1296 0.9327 0.3367
vn -0.5444 -0.5680 0.6173
vn 0.0517 -0.9986 0.0061
vn 0.5853 -0.8068 0.0811
vn 0.9371 0.3285 -0.1179
vn -0.1424 -0.9850 0.0976
vn -0.7028 0.0389 0.7103
vn 0.6118 0.7775 0.1455
vn -0.4191 0.7540 0.5058
vn -0.5371 -0.4976 0.6811
vn -0.0618 -0.9655 0.2529
vn -0.0782 0.9810 0.1777
vn -0.1378 0.9242 0.3561
vn -0.4217 0.5002 0.7563
vn -0.6622 0.2784 0.6957
vn 0.9812 0.0109 0.1927
vn -0.4009 0.0162 0.9160
vn 0.0188 0.9973 0.0715
vn 0.0011 -0.9998 -0.0212
vn -0.0510 -0.9966 -0.0646
vn 0.1637 0.9848 0.0582
vn 0.0269 -0.9990 0.0359
vn 0.6289 -0.5793 0.5185
vn 0.4663 -0.7543 0.4621
vn -0.0549 0.9964 0.0645
vn -0.2653 -0.4585 0.8482
vn 0.1265 -0.6316 0.7649
vn 0.0421 -0.0632 0.9971
vn -0.2992 0.1403 0.9438
vn 0.3050 -0.1389 0.9422
vn 0.0485 0.1051 0.9933
vn 0.1459 0.1204 0.9819
vn 0.1633 0.0458 0.9855
vn 0.0390 0.5225 0.8518
vn 0.0694 0.4450 0.8928
vn -0.8515 0.5243 0.0065
vn -0.8929 0.1248 0.4327
vn -0.3881 0.5505 0.7392
vn 0.4525 0.8320 0.3209
vn 0.0615 0.9973 0.0402
vn -0.4485 -0.8725 0.1941
vn -0.9090 -0.2751 0.3130
vn -0.6447 -0.7235 -0.2466
vn 0.9860 -0.1135 0.1224
vn -0.3154 0.9087 0.2737
vn -0.0009 -0.9991 -0.0432
vn 0.0017 -0.9964 -0.0843
vn -0.0500 -0.4507 0.8913
vn 0.0120 -0.9985 -0.0533
vn -0.0400 -0.9972 -0.0627
vn -0.1057 -0.9933 -0.0472
vn 0.9517 0.0271 -0.3059
vn -0.5738 -0.7725 -0.2718
vn -0.0501 -0.9937 -0.1002
vn -0.9015 0.2651 -0.3422
vn -0.5544 0.8134 -0.1759
vn -0.9756 0.0598 -0.2112
vn 0.9530 0.2941 0.0726
vn 0.0369 0.8463 0.5314
vn -0.0468 0.9910 0.1256
vn -0.9494 -0.0719 -0.3057
vn -0.9226 0.0513 -0.3823
vn 0.5890 0.1300 0.7976
vn -0.1574 0.9871 -0.0305
vn -0.4789 -0.8522 -0.2107
vn -0.8965 -0.1858 -0.4022
vn -0.0271 0.9996 0.0013
vn -0.0897 -0.9954 -0.0347
vn -0.0586 -0.9983 0.0009
vn 0.1643 -0.8670 0.4704
vn -0.0669 -0.9965 0.0507
vn -0.1336 -0.9906 -0.0290
vn -0.1324 -0.9911 0.0127
vn -0.2110 -0.9590 -0.1893
vn 0.3973 -0.0372 0.9169
vn 0.4138 -0.3564 0.8377
vn 0.3904 0.0879 0.9164
vn -0.8965 0.0539 -0.4399
vn 0.4157 0.0354 0.9088
vn 0.3644 0.5761 0.7317
vn 0.0593 -0.9962 -0.0632
vn 0.1686 0.9617 0.2161
vn -0.8310 0.3668 -0.4182
vn 0.4747 0.1025 0.8742
vn -0.0321 -0.9993 0.0194
vn 0.4883 0.0035 0.8726
vn -0.0101 -0.9998 0.0163
vn -0.1454 -0.9726 -0.1812
vn 0.4952 0.4810 0.7234
vn -0.5243 0.8515 0.0030
vn -0.1470 0.9891 0.0067
vn 0.3773 -0.6045 0.7015
vn 0.3828 0.8129 0.4389
vn 0.5396 0.2432 0.8060
vn -0.4296 -0.9011 0.0586
vn 0.7442 -0.0126 0.6678
vn 0.1319 0.9909 0.0260
vn -0.9008 0.3833 -0.2041
vn -0.8701 0.0055 -0.4928
vn 0.0748 -0.9969 -0.0224
vn 0.7020 0.3168 0.6379
vn -0.9468 -0.3188 -0.0441
vn 0.5388 0.8415 -0.0397
vn -0.0860 -0.9947 0.0566
vn -0.0762 -0.9970 -0.0149
vn 0.8070 -0.4335 0.4010
vn -0.0881 -0.9943 -0.0608
vn 0.1163 -0.9853 0.1250
vn 0.9996 0.0047 0.0294
vn 0.8929 0.4481 0.0443
vn 0.4853 -0.8007 -0.3511
vn -0.8826 0.3152 0.3489
vn 0.1511 0.9812 -0.1202
vn 0.2458 -0.7425 -0.6231
vn 0.2048 -0.8244 -0.5276
vn 0.8176 -0.2681 -0.5096
vn -0.0454 -0.9989 -0.0062
vn 0.0958 -0.9852 -0.1420
vn 0.7477 0.2713 -0.6060
vn 0.7400 -0.0016 -0.6727
vn 0.0861 0.9949 -0.0523
vn 0.3771 0.8090 -0.4509
vn 0.5273 0.2540 -0.8108
vn 0.5025 0.3312 -0.7986
vn 0.0638 -0.9926 -0.1033
vn 0.5418 -0.0923 -0.8354
vn 0.0367 -0.9970 0.0689
vn 0.0426 -0.9972 0.0620
vn -0.0736 0.9884 -0.1329
vn 0.0130 -0.9992 -0.0373
vn 0.2706 -0.9165 -0.2945
vn -0.6038 -0.7477 0.2762
vn -0.6506 -0.7220 0.2356
vn -0.0701 0.9973 -0.0236
vn -0.3606 0.9283 0.0908
vn -0.9092 0.0939 0.4057
vn -0.9131 -0.1537 0.3777
vn -0.7706 0.5458 0.3291
vn -0.8081 0.5446 0.2244
vn 0.4823 -0.7647 -0.4274
vn 0.4430 0.0152 -0.8964
vn 0.0310 -0.9892 -0.1430
vn 0.1195 -0.9822 0.1449
vn 0.0675 -0.9637 0.2582
vn -0.2860 -0.9199 0.2682
vn -0.0644 -0.9973 -0.0349
vn -0.3054 0.9136 -0.2686
vn -0.0565 0.9853 -0.1614
vn 0.4147 -0.1818 -0.8916
vn -0.2598 -0.9653 0.0247
vn -0.0868 -0.9889 0.1209
vn 0.3427 0.6622 -0.6663
vn 0.3953 0.8824 -0.2552
vn -0.9578 -0.0718 0.2783
vn 0.4184 0.0682 -0.9057
vn 0.4307 0.1943 -0.8814
vn 0.8989 0.4319 -0.0739
vn 0.0046 0.9995 -0.0319
vn -0.9943 0.0561 -0.0904
vn -0.0268 -0.9988 -0.0416
vn 0.4059 -0.1323 -0.9043
vn 0.3726 -0.2484 -0.8941
vn 0.4114 0.1168 -0.9039
vn 0.0116 0.8256 -0.5642
vn 0.2697 -0.9454 0.1830
vn -0.2551 -0.9598 -0.1171
vn 0.1435 -0.9895 0.0176
vn 0.5980 -0.7988 -0.0653
vn 0.2569 -0.9637 -0.0728
vn 0.7658 -0.1576 -0.6234
vn 0.2244 0.9686 -0.1073
vn -0.0587 -0.9983 0.0029
vn 0.3155 -0.3780 -0.8704
vn 0.9934 0.0476 -0.1044
vn 0.0903 -0.8543 -0.5119
vn 0.9646 -0.2224 -0.1420
vn -0.0065 -0.9965 -0.0833
vn 0.9840 0.1265 -0.1253
vn 0.7591 0.6077 -0.2334
vn 0.9319 -0.3291 -0.1525
vn 0.0689 -0.9976 0.0086
vn -0.0875 -0.9943 -0.0605
vn -0.1528 -0.9779 -0.1429
vn 0.1096 -0.7344 -0.6698
vn 0.0738 -0.2312 -0.9701
vn 0.1309 -0.1716 -0.9764
vn -0.1166 0.9732 -0.1980
vn -0.7866 -0.4615 -0.4102
vn -0.8433 0.5112 -0.1657
vn 0.0997 0.3661 -0.9252
vn -0.2122 0.7351 -0.6439
vn 0.2102 0.0384 -0.9769
vn 0.1061 0.0224 -0.9941
vn -0.2004 -0.8335 -0.5149
vn -0.4097 -0.2359 -0.8812
vn -0.7282 -0.2506 -0.6379
vn 0.0371 0.0467 -0.9982
vn -0.7670 0.0049 -0.6416
vn -0.1245 -0.5283 -0.8399
vn -0.6150 0.1465 -0.7748
vn -0.2939 0.0593 -0.9540
vn -0.6414 0.2968 -0.7075
vn -0.2534 0.5107 -0.8216
vn -0.7044 0.2110 -0.6778
vn -0.4514 0.7100 -0.5406
vn 0.8249 -0.5006 -0.2624
vn 0.9717 0.0583 -0.2290
vn -0.0126 0.0465 -0.9988
vn -0.3428 -0.8653 -0.3657
vn -0.0141 0.9533 -0.3016
vn 0.3179 0.7295 -0.6056
vn 0.0515 -0.7881 -0.6134
vn -0.3940 -0.6856 -0.6121
vn 0.8808 -0.3310 -0.3387
vn 0.6003 -0.7754 -0.1961
vn -0.5942 -0.2361 -0.7689
vn -0.5362 0.2927 -0.7917
vn 0.9335 0.1657 -0.3179
vn -0.5731 -0.0256 -0.8191
vn 0.9411 0.0498 -0.3344
vn -0.6384 0.0616 -0.7673
vn -0.1972 -0.1775 -0.9642
vn 0.6249 -0.2948 -0.7229
vn -0.5610 0.1193 -0.8192
vn -0.4126 0.5761 -0.7056
vn 0.8189 0.1685 -0.5487
vn 0.3198 0.0319 -0.9469
vn -0.3530 0.0069 -0.9356
vn 0.0674 0.3689 -0.9270
vt 0.297789 0.546442
vt 0.233214 0.600413
vt 0.222607 0.566852
vt 0.210281 0.605690
vt 0.212719 0.629973
vt 0.153629 0.569554
vt 0.165636 0.624822
vt 0.204056 0.530183
vt 0.230607 0.494974
vt 0.230735 0.534265
vt 0.305253 0.581504
vt 0.822227 0.654513
vt 0.837087 0.711956
vt 0.807878 0.734144
vt 0.829022 0.743775
vt 0.226138 0.633333
vt 0.229144 0.672595
vt 0.195813 0.664578
vt 0.287360 0.645843
vt 0.261935 0.702757
vt 0.852472 0.733756
vt 0.881668 0.771077
vt 0.901648 0.686492
vt 0.841050 0.750730
vt 0.876416 0.778543
vt 0.810855 0.759613
vt 0.791299 0.730307
vt 0.323661 0.657830
vt 0.762454 0.720924
vt 0.803709 0.686201
vt 0.143449 0.665876
vt 0.138347 0.637944
vt 0.908978 0.800166
vt 0.751597 0.757971
vt 0.745366 0.731092
vt 0.480699 0.912853
vt 0.498264 0.864068
vt 0.570829 0.887836
vt 0.236716 0.709454
vt 0.563553 0.919156
vt 0.556220 0.917516
vt 0.584574 0.905693
vt 0.182558 0.466169
vt 0.850189 0.800935
vt 0.519608 0.826801
vt 0.228859 0.718690
vt 0.182218 0.545579
vt 0.153260 0.514453
vt 0.595319 0.842502
vt 0.612154 0.831582
vt 0.140034 0.535200
vt 0.104232 0.493963
vt 0.122717 0.480618
vt 0.157891 0.494018
vt 0.344283 0.703480
vt 0.541103 0.805127
vt 0.769505 0.689658
vt 0.125335 0.741371
vt 0.627060 0.834862
vt 0.659757 0.878028
vt 0.188957 0.773651
vt 0.157022 0.436487
vt 0.129583 0.575850
vt 0.688876 0.749165
vt 0.685164 0.704768
vt 0.678567 0.739134
vt 0.087730 0.516391
vt 0.950593 0.450678
vt 0.888449 0.375014
vt 0.939547 0.387528
vt 0.290848 0.116934
vt 0.401321 0.188175
vt 0.331953 0.225409
vt 0.313022 0.268167
vt 0.230792 0.159554
vt 0.204827 0.186566
vt 0.192394 0.229806
vt 0.202264 0.131625
vt 0.071007 0.404266
vt 0.094552 0.414642
vt 0.109750 0.467397
vt 0.277674 0.085751
vt 0.301917 0.108547
vt 0.270492 0.104070
vt 0.218847 0.801109
vt 0.187505 0.824803
vt 0.939747 0.465482
vt 0.411972 0.165536
vt 0.958538 0.470073
vt 0.923092 0.511162
vt 0.709938 0.698758
vt 0.257428 0.091728
vt 0.903143 0.362187
vt 0.574387 0.582130
vt 0.556576 0.592971
vt 0.484532 0.565537
vt 0.840614 0.318325
vt 0.814170 0.328244
vt 0.076787 0.273566
vt 0.032392 0.335162
vt 0.035534 0.260624
vt 0.694563 0.672388
vt 0.946947 0.249681
vt 0.790882 0.331430
vt 0.793701 0.528355
vt 0.868670 0.420882
vt 0.869804 0.465819
vt 0.598673 0.829028
vt 0.296664 0.006355
vt 0.266026 0.000114
vt 0.332955 0.087315
vt 0.245442 0.791041
vt 0.124083 0.431053
vt 0.174385 0.115128
vt 0.081370 0.442975
vt 0.538852 0.778598
vt 0.166877 0.077912
vt 0.072736 0.460400
vt 0.935372 0.553833
vt 0.515573 0.482578
vt 0.444187 0.493003
vt 0.905767 0.199922
vt 0.870216 0.245618
vt 0.878711 0.202999
vt 0.080747 0.641465
vt 0.432103 0.075185
vt 0.362716 0.016032
vt 0.718758 0.577197
vt 0.363214 0.565490
vt 0.358587 0.600346
vt 0.353942 0.576883
vt 0.711040 0.825216
vt 0.674957 0.839103
vt 0.530325 0.144677
vt 0.464846 0.187659
vt 0.458876 0.045353
vt 0.899747 0.545068
vt 0.897640 0.592675
vt 0.977884 0.238145
vt 0.590267 0.395942
vt 0.527018 0.430153
vt 0.468865 0.395873
vt 0.703094 0.881424
vt 0.689431 0.829981
vt 0.728557 0.840857
vt 0.529004 0.696304
vt 0.520094 0.777182
vt 0.509256 0.734974
vt 0.452465 0.781115
vt 0.416891 0.774471
vt 0.411040 0.805942
vt 0.432614 0.815031
vt 0.559565 0.741772
vt 0.540131 0.771380
vt 0.544453 0.699122
vt 0.647879 0.792542
vt 0.518778 0.788508
vt 0.648116 0.826876
vt 0.571817 0.790415
vt 0.332521 0.515758
vt 0.637112 0.796202
vt 0.421981 0.002689
vt 0.600785 0.670604
vt 0.998692 0.121214
vt 0.396849 0.606148
vt 0.407449 0.558518
vt 0.563703 0.546871
vt 0.424880 0.497697
vt 0.434790 0.561394
vt 0.372113 0.628802
vt 0.322745 0.627192
vt 0.587220 0.012118
vt 0.514458 0.211113
vt 0.450765 0.218811
vt 0.676462 0.809402
vt 0.443224 0.594831
vt 0.605463 0.455489
vt 0.436278 0.277610
vt 0.924438 0.629809
vt 0.583905 0.649887
vt 0.945137 0.792996
vt 0.943328 0.751086
vt 0.969117 0.754278
vt 0.033807 0.253411
vt 0.037831 0.224552
vt 0.075501 0.266498
vt 0.440327 0.623907
vt 0.568614 0.181734
vt 0.582598 0.152853
vt 0.472035 0.564612
vt 0.526472 0.666070
vt 0.658501 0.825902
vt 0.451271 0.646401
vt 0.468917 0.630294
vt 0.614122 0.416058
vt 0.347526 0.903879
vt 0.386495 0.894311
vt 0.352909 0.966990
vt 0.427229 0.969008
vt 0.387840 0.668079
vt 0.566988 0.223175
vt 0.651451 0.383007
vt 0.647115 0.340647
vt 0.720632 0.276565
vt 0.592604 0.513691
vt 0.547099 0.619089
vt 0.501601 0.657982
vt 0.610455 0.401484
vt 0.610916 0.361328
vt 0.490442 0.671762
vt 0.505056 0.686338
vt 0.473796 0.305936
vt 0.447722 0.729180
vt 0.424859 0.892449
vt 0.481237 0.675894
vt 0.384324 0.863133
vt 0.413974 0.876432
vt 0.620386 0.592872
vt 0.540952 0.635442
vt 0.504122 0.668188
vt 0.620873 0.633793
vt 0.264584 0.812809
vt 0.263847 0.820801
vt 0.246042 0.819284
vt 0.682128 0.298592
vt 0.578452 0.217986
vt 0.910875 1.000000
vt 0.808288 0.990852
vt 0.903250 0.940167
vt 0.717621 0.973528
vt 0.670395 0.998840
vt 0.727555 0.904717
vt 0.028901 0.572008
vt 0.038803 0.457921
vt 0.036244 0.602742
vt 0.076359 0.234321
vt 0.315610 0.782210
vt 0.320313 0.738008
vt 0.339460 0.752001
vt 0.306490 0.817224
vt 0.333338 0.818434
vt 0.287209 0.775127
vt 0.260321 0.828681
vt 0.181824 0.846228
vt 0.406534 0.766572
vt 0.383716 0.788437
vt 0.017387 0.555535
vt 0.003874 0.519432
vt 0.019392 0.507618
vt 0.250215 0.841052
vt 0.212122 0.959234
vt 0.180890 0.851893
vt 0.354592 0.714276
vt 0.793643 0.989722
vt 0.792730 0.974866
vt 0.848967 0.944547
vt 0.822653 0.939538
vt 0.848320 0.916516
vt 0.975834 0.725544
vt 0.991538 0.726960
vt 0.009485 0.421292
vt 0.299893 0.833562
vt 0.940740 0.724863
vt 0.004441 0.561726
vt 0.645313 0.905167
vt 0.696884 0.886060
vt 0.088064 0.262440
vt 0.140487 0.115667
vt 0.162411 0.214925
vt 0.269663 0.872068
vt 0.570577 0.922652
vt 0.611949 0.914619
vt 0.004489 0.746331
vt 0.005085 0.708935
vt 0.070850 0.679419
vt 0.137816 0.663224
vt 0.692454 0.511082
vt 0.763651 0.506599
vt 0.716080 0.572133
vt 0.000000 0.693744
vt 0.008734 0.566182
vt 0.060413 0.659714
vt 0.773492 0.570343
vt 0.804519 0.550481
vt 0.862739 0.629412
vt 0.778242 0.523389
vt 0.745109 0.575824
vt 0.591903 0.167660
vt 0.621722 0.173203
vt 0.684446 0.206431
vt 0.379927 0.803754
vt 0.754687 0.935843
vt 0.808211 0.859500
vt 0.371086 0.704003
vt 0.987564 0.717134
vt 0.972358 0.709506
vt 0.985275 0.681653
vt 0.996209 0.700174
vt 0.352407 0.778736
vt 0.757915 0.429569
vt 0.681741 0.459817
vt 0.334166 0.833932
vt 0.627134 0.608446
vt 0.617093 0.486286
vt 0.042484 0.207842
vt 0.105929 0.745355
vt 0.084068 0.788973
vt 0.085695 0.709610
vt 0.122407 0.772143
vt 0.760150 0.839079
vt 0.955233 0.902695
vt 0.896187 0.908260
vt 0.934469 0.889006
vt 0.130290 0.291820
vt 0.209982 0.317433
vt 0.102956 0.345088
vt 0.854083 0.871954
vt 0.915504 0.880602
vt 0.224707 0.426829
vt 0.209553 0.419932
vt 0.215561 0.418159
vt 0.080854 0.123793
vt 0.235212 0.522250
vt 0.236656 0.441471
vt 0.279578 0.436707
vt 0.109869 0.726129
vt 0.120521 0.728525
vt 0.574737 0.183014
vt 0.760365 0.267396
vt 0.664720 0.276413
vt 0.907426 0.702371
vt 0.929726 0.660317
vt 0.113578 0.268878
vt 0.069567 0.301655
vt 0.351273 0.831796
vt 0.369953 0.822080
vt 0.350573 0.863882
vt 0.733497 0.208787
vt 0.791561 0.816316
vt 0.883596 0.864743
vt 0.422093 0.873301
vt 0.688997 0.437583
vt 0.119567 0.745796
vt 0.126492 0.755567
vt 0.452467 0.305187
vt 0.456865 0.343717
vt 0.367701 0.212809
vt 0.083840 0.837148
vt 0.071434 0.841229
vt 0.049369 0.797106
vt 0.114687 0.875955
vt 0.384427 0.813685
vt 1.000000 0.677657
vt 0.993054 0.689552
vt 0.951414 0.803272
vt 0.259265 0.402485
vt 0.131271 0.834710
vt 0.291056 0.997908
vt 0.283337 0.997380
vt 0.272365 0.901664
vt 0.374104 0.334077
vt 0.398690 0.342289
vt 0.312899 0.909725
vt 0.434693 0.376284
vt 0.034809 0.806806
vt 0.067354 0.854158
vt 0.374373 0.368952
vt 0.213615 0.373967
vt 0.248081 0.369756
vt 0.045584 0.832943
vt 0.281870 0.883283
vt 0.976156 0.596152
vt 0.995365 0.601498
vt 0.952334 0.627363
vt 0.400294 0.806233
vt 0.325911 0.314457
vt 0.356560 0.403626
vt 0.415487 0.397478
vt 0.371526 0.415799
vt 0.098524 0.088778
vt 0.481354 0.354280
vt 0.289462 0.868078
vt 0.043372 0.331778
vt 0.049146 0.425458
vt 0.743978 0.229779
vt 0.179338 0.407079
vt 0.939987 0.147979
vt 0.939987 0.048630
vt 0.996071 0.115213
vt 0.676195 0.424128
vt 0.620797 0.453646
vt 0.158784 0.842983
vt 0.357764 0.537272
vt 0.410339 0.491533
vt 0.929569 0.642430
vt 0.888658 0.639329
vt 0.930048 0.633791
vt 0.323150 0.407509
vt 0.943536 0.608983
vt 0.145590 0.093179
vt 0.314050 0.414625
vt 0.379940 0.869263
vt 0.713758 0.085646
vt 0.697469 0.046433
vt 0.753886 0.053863
vt 0.728288 0.121113
vt 0.468497 0.371226
vt 0.606644 0.355929
vt 0.152435 0.069620
vt 0.194226 0.033674
vt 0.168150 0.065196
vt 0.144261 0.085630
vt 0.662651 0.000000
vt 0.775094 0.254151
vt 0.756255 0.224550
vt 0.124132 0.059376
vt 0.100353 0.069947
vt 0.764139 0.440581
vt 0.620761 0.407447
vt 0.758717 0.413275
vt 0.622045 0.087407
vt 0.085255 0.869067
vt 0.037804 0.915898
vt 0.216652 0.339401
vt 0.720601 0.000803
vt 0.146160 0.030728
vt 0.326755 0.419991
vt 0.676575 0.377268
vt 0.746748 0.381221
vt 0.976247 0.586212
vt 0.798987 0.226741
vt 0.956445 0.148237
vt 0.177647 0.332129
vt 0.736857 0.280938
vt 0.293584 0.359885
vt 0.281704 0.341791
vt 0.142070 0.904419
vt 0.175095 0.880618
vt 0.096585 0.890162
vt 0.125659 0.897941
vt 0.775373 0.171163
vt 0.750542 0.170090
vt 0.082125 0.041572
vt 0.005061 0.385346
vt 0.022139 0.377319
vt 0.022155 0.443440
vt 0.258606 0.352988
vt 0.834656 0.124708
vt 0.239670 0.329012
vt 0.213047 0.285487
vt 0.816480 0.009908
vt 0.838828 0.070311
vt 0.153286 0.919457
vt 0.130416 0.918155
vt 0.859311 0.089336
vt 0.747355 0.183451
vt 0.792667 0.201014
vt 0.749786 0.212536
vt 0.903066 0.049530
vt 0.912225 0.004944
vt 0.934812 0.061262
vt 0.274245 0.327345
vt 0.882527 0.029340
vt 0.307796 0.349281
vt 0.245912 0.266156
vt 0.278863 0.311253
vt 0.874481 0.130187
vt 0.283422 0.332631
vt 0.292141 0.298713
vt 0.317645 0.314758
vt 0.832157 0.203031
vt 0.299599 0.270415
vt 0.264125 0.261677
s 1
usemtl tripo_mat_6abc821d
f 31/1/1 178/2/2 157/3/3
f 178/2/2 191/4/4 157/3/3
f 215/5/5 191/4/4 178/2/2
f 156/6/6 191/4/4 206/7/7
f 198/8/8 156/9/6 206/10/7
f 178/2/2 31/1/1 15/11/9
f 163/12/10 15/13/9 46/14/11
f 15/13/9 52/15/12 46/14/11
f 210/16/13 215/5/5 178/2/2
f 215/5/5 210/16/13 221/17/14
f 215/5/5 221/17/14 225/18/15
f 163/19/10 203/20/16 221/17/14
f 206/7/7 191/4/4 215/5/5
f 31/21/1 52/15/12 15/13/9
f 58/22/17 31/21/1 157/23/3
f 61/24/18 78/25/19 79/26/20
f 52/15/12 61/24/18 79/26/20
f 178/2/2 15/11/9 210/16/13
f 61/24/18 52/15/12 31/21/1
f 61/24/18 31/21/1 78/25/19
f 221/17/14 210/16/13 163/19/10
f 52/15/12 79/26/20 46/14/11
f 79/26/20 44/27/21 46/14/11
f 2/28/22 203/20/16 163/19/10
f 58/22/17 78/25/19 31/21/1
f 37/29/23 2/30/22 44/27/21
f 46/14/11 2/30/22 163/12/10
f 210/16/13 15/11/9 163/19/10
f 157/3/3 191/4/4 156/6/6
f 206/7/7 215/5/5 217/31/24
f 225/18/15 217/31/24 215/5/5
f 217/31/24 198/32/8 206/7/7
f 157/23/3 82/33/25 58/22/17
f 64/34/26 48/35/27 79/26/20
f 157/36/3 156/37/6 82/38/25
f 226/39/28 221/17/14 203/20/16
f 44/27/21 2/30/22 46/14/11
f 82/38/25 78/40/19 58/41/17
f 78/40/19 82/38/25 90/42/29
f 198/8/8 145/43/30 156/9/6
f 79/26/20 90/44/29 64/34/26
f 82/38/25 156/37/6 145/45/30
f 79/26/20 78/25/19 90/44/29
f 231/46/31 225/18/15 221/17/14
f 217/47/24 207/48/32 198/8/8
f 231/46/31 221/17/14 226/39/28
f 48/35/27 37/29/23 44/27/21
f 48/35/27 44/27/21 79/26/20
f 82/38/25 99/49/33 108/50/34
f 82/38/25 108/50/34 90/42/29
f 217/47/24 222/51/35 207/48/32
f 207/48/32 201/52/36 186/53/37
f 198/8/8 181/54/38 145/43/30
f 181/54/38 198/8/8 207/48/32
f 203/20/16 2/28/22 12/55/39
f 82/38/25 145/45/30 141/56/40
f 2/30/22 37/29/23 12/57/39
f 82/38/25 141/56/40 99/49/33
f 217/31/24 225/18/15 229/58/41
f 90/42/29 107/59/42 86/60/43
f 231/46/31 238/61/44 225/18/15
f 207/48/32 222/51/35 201/52/36
f 181/54/38 186/53/37 145/43/30
f 145/43/30 186/53/37 141/62/40
f 222/51/35 217/47/24 229/63/41
f 229/58/41 225/18/15 238/61/44
f 186/53/37 181/54/38 207/48/32
f 48/35/27 64/34/26 63/64/45
f 38/65/46 48/35/27 53/66/47
f 222/51/35 212/67/48 201/52/36
f 134/68/49 118/69/50 100/70/51
f 1/71/52 134/72/49 100/73/51
f 100/73/51 102/74/53 142/75/54
f 142/75/54 102/74/53 148/76/55
f 148/76/55 102/74/53 143/77/56
f 170/78/57 142/75/54 148/76/55
f 170/79/57 148/80/55 180/81/58
f 142/75/54 1/71/52 100/73/51
f 147/82/59 6/83/60 149/84/61
f 1/71/52 149/84/61 6/83/60
f 231/46/31 236/85/62 238/61/44
f 236/85/62 239/86/63 238/61/44
f 140/87/64 118/69/50 134/68/49
f 1/71/52 132/88/65 134/72/49
f 6/83/60 132/88/65 1/71/52
f 134/68/49 132/89/65 140/87/64
f 140/87/64 132/89/65 136/90/66
f 19/91/67 48/35/27 38/65/46
f 149/84/61 170/78/57 161/92/68
f 149/84/61 1/71/52 142/75/54
f 170/78/57 149/84/61 142/75/54
f 102/93/53 100/70/51 118/69/50
f 94/94/69 96/95/70 107/96/42
f 98/97/71 118/69/50 108/98/34
f 120/99/72 129/100/73 126/101/74
f 48/35/27 19/91/67 37/29/23
f 10/102/75 19/91/67 38/65/46
f 143/103/56 102/93/53 118/69/50
f 108/98/34 140/87/64 107/104/42
f 124/105/76 129/106/73 128/107/77
f 99/49/33 141/56/40 98/108/71
f 149/84/61 161/92/68 147/82/59
f 144/109/78 147/82/59 168/110/79
f 161/92/68 168/110/79 147/82/59
f 99/49/33 98/108/71 108/50/34
f 147/82/59 144/109/78 16/111/80
f 118/69/50 140/87/64 108/98/34
f 118/69/50 98/97/71 143/103/56
f 224/112/81 203/20/16 12/55/39
f 6/83/60 147/82/59 16/111/80
f 141/62/40 180/81/58 143/113/56
f 183/114/82 161/92/68 170/78/57
f 180/81/58 148/80/55 143/113/56
f 141/62/40 186/53/37 180/81/58
f 170/79/57 180/81/58 183/115/82
f 229/63/41 212/67/48 222/51/35
f 98/108/71 141/56/40 143/116/56
f 90/42/29 108/50/34 107/59/42
f 132/88/65 6/83/60 16/111/80
f 194/117/83 161/92/68 183/114/82
f 180/81/58 201/52/36 183/115/82
f 90/44/29 63/64/45 64/34/26
f 186/53/37 201/52/36 180/81/58
f 12/57/39 37/29/23 19/91/67
f 183/115/82 201/52/36 194/118/83
f 48/35/27 63/64/45 53/66/47
f 226/39/28 203/20/16 231/46/31
f 231/46/31 203/20/16 224/112/81
f 231/46/31 224/112/81 236/85/62
f 132/89/65 110/119/84 136/90/66
f 120/120/72 107/96/42 129/121/73
f 212/122/48 194/123/83 201/124/36
f 229/63/41 239/125/63 212/67/48
f 132/88/65 16/111/80 110/126/84
f 22/127/85 110/126/84 16/111/80
f 10/102/75 224/128/81 19/91/67
f 200/129/86 236/130/62 224/131/81
f 140/87/64 136/90/66 129/106/73
f 140/87/64 129/106/73 107/104/42
f 128/107/77 129/106/73 136/90/66
f 224/128/81 12/57/39 19/91/67
f 90/44/29 86/132/43 63/64/45
f 120/120/72 94/94/69 107/96/42
f 107/59/42 96/133/70 86/60/43
f 16/111/80 144/109/78 22/127/85
f 168/110/79 161/92/68 194/117/83
f 182/134/87 168/135/79 194/136/83
f 128/107/77 136/90/66 135/137/88
f 124/105/76 135/137/88 116/138/89
f 194/123/83 212/122/48 211/139/90
f 124/140/76 126/141/74 129/142/73
f 71/143/91 86/60/43 94/144/69
f 94/144/69 88/145/92 71/143/91
f 35/146/93 53/147/47 51/148/94
f 65/149/95 67/150/96 51/148/94
f 71/151/91 65/149/95 75/152/97
f 17/153/98 38/154/46 25/155/99
f 25/155/99 53/147/47 35/146/93
f 86/132/43 65/156/95 63/64/45
f 53/147/47 63/157/45 51/148/94
f 38/154/46 200/158/86 10/159/75
f 200/129/86 224/131/81 10/160/75
f 192/161/100 200/158/86 38/154/46
f 25/155/99 38/154/46 53/147/47
f 57/162/101 110/126/84 22/127/85
f 179/163/102 17/153/98 25/155/99
f 239/164/63 211/139/90 212/122/48
f 38/154/46 17/153/98 192/161/100
f 240/165/103 236/130/62 200/129/86
f 116/138/89 136/90/66 110/119/84
f 116/138/89 135/137/88 136/90/66
f 240/165/103 200/129/86 192/166/100
f 104/167/104 94/94/69 120/120/72
f 239/86/63 229/58/41 238/61/44
f 17/168/98 179/169/102 192/166/100
f 246/170/105 239/171/63 236/130/62
f 182/134/87 194/136/83 211/172/90
f 168/135/79 159/173/106 144/174/78
f 65/156/95 86/132/43 75/175/97
f 240/165/103 192/166/100 179/169/102
f 214/176/107 240/165/103 179/169/102
f 236/130/62 240/165/103 246/170/105
f 120/120/72 126/141/74 121/177/108
f 51/148/94 63/157/45 65/149/95
f 144/174/78 159/173/106 22/178/85
f 116/138/89 110/119/84 57/179/101
f 179/163/102 25/155/99 166/180/109
f 94/181/69 95/182/110 88/183/92
f 88/184/92 77/185/111 71/186/91
f 243/187/112 240/165/103 214/176/107
f 175/188/113 182/134/87 188/189/114
f 214/176/107 179/169/102 166/190/109
f 211/172/90 188/189/114 182/134/87
f 27/191/115 25/155/99 35/146/93
f 86/132/43 71/192/91 75/175/97
f 246/170/105 240/165/103 251/193/116
f 243/187/112 232/194/117 251/193/116
f 214/176/107 232/194/117 243/187/112
f 232/194/117 214/176/107 166/190/109
f 159/173/106 168/135/79 175/188/113
f 124/105/76 128/107/77 135/137/88
f 123/195/118 126/141/74 124/140/76
f 175/188/113 168/135/79 182/134/87
f 25/196/99 27/197/115 166/198/109
f 184/199/119 166/198/109 27/197/115
f 96/133/70 94/144/69 86/60/43
f 246/170/105 251/193/116 250/200/120
f 243/187/112 251/193/116 240/165/103
f 123/195/118 121/177/108 126/141/74
f 158/201/121 159/173/106 175/188/113
f 81/202/122 57/203/101 158/204/121
f 111/205/123 94/94/69 104/167/104
f 184/206/119 232/194/117 166/190/109
f 184/206/119 245/207/124 232/194/117
f 114/208/125 124/140/76 116/209/89
f 124/140/76 114/208/125 123/195/118
f 251/193/116 252/210/126 250/200/120
f 104/167/104 120/120/72 111/205/123
f 27/191/115 35/146/93 47/211/127
f 116/209/89 81/202/122 114/208/125
f 81/202/122 116/209/89 57/203/101
f 57/212/101 22/178/85 158/201/121
f 35/146/93 51/148/94 47/211/127
f 250/200/120 239/171/63 246/170/105
f 121/177/108 111/205/123 120/120/72
f 55/213/128 51/148/94 67/150/96
f 245/207/124 252/210/126 251/193/116
f 184/199/119 27/197/115 20/214/129
f 22/178/85 159/173/106 158/201/121
f 245/207/124 251/193/116 232/194/117
f 51/148/94 41/215/130 47/211/127
f 27/197/115 47/216/127 43/217/131
f 43/217/131 20/214/129 27/197/115
f 67/150/96 65/149/95 71/151/91
f 94/94/69 111/205/123 95/218/110
f 245/207/124 199/219/132 247/220/133
f 199/219/132 184/206/119 20/221/129
f 43/222/131 36/223/134 20/224/129
f 81/225/122 158/201/121 154/226/135
f 252/210/126 245/207/124 247/220/133
f 245/207/124 184/206/119 199/219/132
f 250/227/120 252/228/126 248/229/136
f 111/230/123 121/231/108 95/232/110
f 81/233/122 154/234/135 114/235/125
f 158/201/121 175/188/113 154/226/135
f 71/186/91 77/185/111 67/236/96
f 41/237/130 51/238/94 55/239/128
f 32/240/137 41/237/130 39/241/138
f 32/240/137 43/222/131 41/237/130
f 43/222/131 47/242/127 41/237/130
f 20/224/129 23/243/139 199/244/132
f 55/239/128 74/245/140 54/246/141
f 36/223/134 23/243/139 20/224/129
f 244/247/142 199/248/132 187/249/143
f 241/250/144 239/251/63 248/252/136
f 239/171/63 250/200/120 248/253/136
f 252/228/126 247/254/133 244/255/142
f 244/255/142 249/256/145 252/228/126
f 248/229/136 252/228/126 249/256/145
f 249/256/145 234/257/146 233/258/147
f 88/183/92 83/259/148 77/260/111
f 199/248/132 23/261/139 187/249/143
f 23/243/139 36/223/134 32/240/137
f 14/262/149 23/243/139 32/240/137
f 95/182/110 97/263/150 88/183/92
f 97/263/150 83/259/148 88/183/92
f 199/248/132 244/247/142 247/264/133
f 112/265/151 97/266/150 95/232/110
f 239/267/63 213/268/152 211/269/90
f 249/256/145 244/255/142 234/257/146
f 14/262/149 187/270/143 23/243/139
f 121/231/108 125/271/153 119/272/154
f 121/273/108 123/274/118 131/275/155
f 131/275/155 138/276/156 121/273/108
f 190/277/157 171/278/158 188/279/114
f 114/280/125 8/281/159 115/282/160
f 131/275/155 114/280/125 115/282/160
f 154/283/135 8/284/159 114/285/125
f 162/286/161 175/287/113 171/278/158
f 8/284/159 154/283/135 162/286/161
f 162/288/161 171/289/158 155/290/162
f 32/240/137 36/223/134 43/222/131
f 45/291/163 39/241/138 54/246/141
f 175/287/113 162/286/161 154/283/135
f 234/257/146 187/292/143 165/293/164
f 244/255/142 187/292/143 234/257/146
f 67/294/96 74/245/140 55/239/128
f 175/287/113 188/279/114 171/278/158
f 83/259/148 60/295/165 77/260/111
f 87/296/166 92/297/167 60/295/165
f 60/295/165 92/297/167 66/298/168
f 95/232/110 121/231/108 119/272/154
f 55/239/128 50/299/169 41/237/130
f 164/300/170 190/277/157 185/301/171
f 18/302/172 14/262/149 32/240/137
f 211/303/90 213/304/152 190/277/157
f 41/237/130 50/299/169 39/241/138
f 67/236/96 77/185/111 72/305/173
f 72/306/173 74/307/140 67/308/96
f 72/306/173 85/309/174 74/307/140
f 211/303/90 190/277/157 188/279/114
f 14/262/149 18/302/172 187/270/143
f 187/292/143 18/310/172 165/293/164
f 241/311/144 248/229/136 242/312/175
f 242/312/175 248/229/136 249/256/145
f 237/313/176 241/311/144 242/312/175
f 131/275/155 123/274/118 114/280/125
f 119/272/154 112/265/151 95/232/110
f 190/277/157 213/304/152 185/301/171
f 115/314/160 8/315/159 105/316/177
f 83/259/148 97/263/150 87/296/166
f 39/241/138 18/302/172 32/240/137
f 165/293/164 196/317/178 233/258/147
f 233/258/147 196/317/178 242/312/175
f 242/312/175 219/318/179 237/313/176
f 237/319/176 219/320/179 228/321/180
f 213/268/152 239/267/63 230/322/181
f 239/323/63 241/324/144 230/325/181
f 60/295/165 83/259/148 87/296/166
f 234/257/146 165/293/164 233/258/147
f 77/326/111 60/327/165 72/306/173
f 233/258/147 242/312/175 249/256/145
f 8/328/159 13/329/182 105/330/177
f 50/299/169 54/246/141 39/241/138
f 87/296/166 112/331/151 109/332/183
f 8/328/159 162/288/161 155/290/162
f 131/333/155 115/314/160 138/334/156
f 97/263/150 112/331/151 87/296/166
f 50/299/169 55/239/128 54/246/141
f 24/335/184 18/302/172 39/241/138
f 39/241/138 28/336/185 24/335/184
f 165/337/164 18/302/172 24/335/184
f 164/338/170 155/290/162 171/289/158
f 24/339/184 202/340/186 196/317/178
f 202/341/186 24/335/184 28/336/185
f 24/339/184 196/317/178 165/293/164
f 185/301/171 177/342/187 164/300/170
f 72/306/173 60/327/165 66/343/168
f 242/312/175 196/317/178 202/340/186
f 73/344/188 72/306/173 66/343/168
f 72/306/173 73/344/188 85/309/174
f 138/345/156 139/346/189 121/347/108
f 74/307/140 56/348/190 49/349/191
f 49/349/191 54/350/141 74/307/140
f 68/351/192 49/349/191 56/348/190
f 202/340/186 219/318/179 242/312/175
f 39/241/138 45/291/163 28/336/185
f 28/336/185 45/291/163 26/352/193
f 92/297/167 85/353/174 73/354/188
f 73/354/188 66/298/168 92/297/167
f 202/341/186 28/336/185 26/352/193
f 8/328/159 155/290/162 13/329/182
f 119/272/154 125/271/153 112/265/151
f 26/355/193 219/318/179 202/340/186
f 241/324/144 235/356/194 230/325/181
f 235/356/194 241/324/144 237/319/176
f 85/309/174 76/357/195 74/307/140
f 74/307/140 76/357/195 56/348/190
f 228/358/180 219/359/179 26/360/193
f 139/346/189 125/361/153 121/347/108
f 139/346/189 127/362/196 125/361/153
f 26/360/193 5/363/197 228/358/180
f 130/364/198 127/362/196 139/346/189
f 45/365/163 54/350/141 49/349/191
f 49/349/191 30/366/199 45/365/163
f 125/361/153 127/362/196 122/367/200
f 164/300/170 171/278/158 190/277/157
f 115/314/160 105/316/177 138/334/156
f 228/321/180 205/368/201 227/369/202
f 92/297/167 87/296/166 109/332/183
f 85/353/174 92/297/167 109/332/183
f 30/366/199 29/370/203 45/365/163
f 5/363/197 26/360/193 29/371/203
f 89/372/204 84/373/205 101/374/206
f 29/375/203 26/352/193 45/291/163
f 112/376/151 125/361/153 122/367/200
f 113/377/207 117/378/208 106/379/209
f 213/268/152 230/322/181 220/380/210
f 139/346/189 138/345/156 137/381/211
f 29/371/203 30/382/199 5/363/197
f 137/383/211 105/316/177 13/384/182
f 138/334/156 105/316/177 137/383/211
f 13/329/182 155/290/162 146/385/212
f 5/386/197 205/368/201 228/321/180
f 112/387/151 122/388/200 109/389/183
f 155/290/162 164/338/170 146/385/212
f 174/390/213 177/342/187 197/391/214
f 185/301/171 213/304/152 177/342/187
f 122/367/200 127/362/196 130/364/198
f 76/357/195 85/309/174 84/392/205
f 228/321/180 227/369/202 237/319/176
f 113/377/207 122/367/200 130/364/198
f 85/353/174 109/332/183 84/373/205
f 84/373/205 109/332/183 101/374/206
f 150/393/215 106/379/209 7/394/216
f 103/395/217 109/332/183 113/396/207
f 93/397/218 103/395/217 113/396/207
f 113/377/207 109/398/183 122/367/200
f 93/397/218 80/399/219 103/395/217
f 101/374/206 109/332/183 103/395/217
f 237/319/176 227/369/202 235/356/194
f 177/342/187 213/304/152 197/391/214
f 213/268/152 220/380/210 197/400/214
f 235/356/194 220/401/210 230/325/181
f 5/363/197 30/382/199 205/402/201
f 93/403/218 21/404/220 11/405/221
f 93/403/218 11/405/221 80/406/219
f 133/407/222 139/346/189 137/381/211
f 3/408/223 133/407/222 137/381/211
f 169/409/224 21/410/220 150/411/215
f 197/400/214 189/412/225 150/411/215
f 150/413/215 21/404/220 93/403/218
f 3/414/223 146/385/212 151/415/226
f 151/415/226 146/385/212 164/338/170
f 189/412/225 176/416/227 169/409/224
f 189/412/225 169/409/224 150/411/215
f 209/417/228 189/412/225 197/400/214
f 13/329/182 146/385/212 3/414/223
f 3/414/223 137/418/211 13/329/182
f 174/390/213 197/391/214 150/419/215
f 139/346/189 133/407/222 130/364/198
f 164/300/170 177/342/187 151/420/226
f 150/413/215 93/403/218 106/421/209
f 42/422/229 167/423/230 30/366/199
f 205/368/201 167/424/230 227/369/202
f 169/425/224 11/405/221 21/404/220
f 11/426/221 169/409/224 176/416/227
f 117/378/208 113/377/207 130/364/198
f 174/390/213 151/420/226 177/342/187
f 113/377/207 106/379/209 93/427/218
f 174/390/213 150/419/215 7/428/216
f 7/394/216 106/379/209 117/378/208
f 7/428/216 9/429/231 174/390/213
f 101/374/206 103/395/217 91/430/232
f 3/414/223 151/415/226 9/431/231
f 49/349/191 42/422/229 30/366/199
f 197/400/214 220/380/210 209/417/228
f 130/364/198 133/407/222 117/378/208
f 151/420/226 174/390/213 9/429/231
f 9/431/231 133/432/222 3/414/223
f 30/433/199 167/424/230 205/368/201
f 209/417/228 176/416/227 189/412/225
f 133/407/222 7/394/216 117/378/208
f 133/434/222 9/429/231 7/428/216
f 42/422/229 49/349/191 68/351/192
f 223/435/233 220/401/210 235/356/194
f 216/436/234 223/435/233 235/356/194
f 227/369/202 216/436/234 235/356/194
f 69/437/235 84/392/205 70/438/236
f 91/430/232 89/372/204 101/374/206
f 33/439/237 68/351/192 59/440/238
f 103/395/217 80/399/219 91/430/232
f 80/406/219 62/441/239 91/442/232
f 193/443/240 176/416/227 209/417/228
f 33/439/237 167/423/230 42/422/229
f 209/444/228 220/445/210 223/446/233
f 76/357/195 68/351/192 56/348/190
f 33/439/237 42/422/229 68/351/192
f 227/369/202 218/447/241 216/436/234
f 69/437/235 59/440/238 68/351/192
f 62/441/239 80/406/219 4/448/242
f 69/437/235 68/351/192 84/392/205
f 84/392/205 68/351/192 76/357/195
f 172/449/243 167/424/230 33/450/237
f 176/451/227 153/452/244 11/405/221
f 167/424/230 172/449/243 218/447/241
f 227/369/202 167/424/230 218/447/241
f 34/453/245 40/454/246 69/437/235
f 70/438/236 34/453/245 69/437/235
f 4/448/242 80/406/219 11/405/221
f 4/448/242 11/405/221 153/452/244
f 160/455/247 4/448/242 153/452/244
f 89/456/204 70/457/236 84/458/205
f 208/459/248 209/460/228 223/461/233
f 40/454/246 33/439/237 59/440/238
f 40/454/246 59/440/238 69/437/235
f 216/436/234 218/447/241 195/462/249
f 209/460/228 208/459/248 193/463/240
f 193/463/240 153/452/244 176/451/227
f 208/464/248 223/435/233 216/436/234
f 172/449/243 33/450/237 40/465/246
f 89/456/204 91/442/232 70/457/236
f 218/447/241 172/449/243 195/462/249
f 193/463/240 208/459/248 153/452/244
f 91/442/232 62/441/239 70/457/236
f 40/465/246 195/462/249 172/449/243
f 40/465/246 173/466/250 195/462/249
f 153/452/244 208/459/248 160/455/247
f 4/448/242 160/455/247 152/467/251
f 204/468/252 152/469/251 160/470/247
f 70/457/236 62/441/239 34/471/245
f 4/448/242 34/471/245 62/441/239
f 4/472/242 152/469/251 34/473/245
f 204/468/252 208/464/248 216/436/234
f 160/470/247 208/464/248 204/468/252
f 173/466/250 204/468/252 195/462/249
f 195/462/249 204/468/252 216/436/234
f 204/468/252 173/466/250 152/469/251
f 173/466/250 40/465/246 34/473/245
f 173/466/250 34/473/245 152/469/251
